%TF.GenerationSoftware,Altium Limited,Altium Designer,25.7.1 (20)*%
G04 Layer_Color=8421504*
%FSLAX45Y45*%
%MOMM*%
%TF.SameCoordinates,98D05D86-F949-4FD5-B65E-89259CC932D3*%
%TF.FilePolarity,Positive*%
%TF.FileFunction,Paste,Top*%
%TF.Part,Single*%
G01*
G75*
%TA.AperFunction,SMDPad,CuDef*%
%ADD11R,0.57247X0.58764*%
%ADD12R,0.58764X0.57247*%
%ADD13R,0.90000X1.40000*%
%ADD14R,5.40000X2.90000*%
G04:AMPARAMS|DCode=15|XSize=0.95mm|YSize=3.85mm|CornerRadius=0.05225mm|HoleSize=0mm|Usage=FLASHONLY|Rotation=180.000|XOffset=0mm|YOffset=0mm|HoleType=Round|Shape=RoundedRectangle|*
%AMROUNDEDRECTD15*
21,1,0.95000,3.74550,0,0,180.0*
21,1,0.84550,3.85000,0,0,180.0*
1,1,0.10450,-0.42275,1.87275*
1,1,0.10450,0.42275,1.87275*
1,1,0.10450,0.42275,-1.87275*
1,1,0.10450,-0.42275,-1.87275*
%
%ADD15ROUNDEDRECTD15*%
G04:AMPARAMS|DCode=16|XSize=1.05mm|YSize=4.45mm|CornerRadius=0.0525mm|HoleSize=0mm|Usage=FLASHONLY|Rotation=180.000|XOffset=0mm|YOffset=0mm|HoleType=Round|Shape=RoundedRectangle|*
%AMROUNDEDRECTD16*
21,1,1.05000,4.34500,0,0,180.0*
21,1,0.94500,4.45000,0,0,180.0*
1,1,0.10500,-0.47250,2.17250*
1,1,0.10500,0.47250,2.17250*
1,1,0.10500,0.47250,-2.17250*
1,1,0.10500,-0.47250,-2.17250*
%
%ADD16ROUNDEDRECTD16*%
G04:AMPARAMS|DCode=17|XSize=6.4mm|YSize=7.9mm|CornerRadius=0.064mm|HoleSize=0mm|Usage=FLASHONLY|Rotation=180.000|XOffset=0mm|YOffset=0mm|HoleType=Round|Shape=RoundedRectangle|*
%AMROUNDEDRECTD17*
21,1,6.40000,7.77200,0,0,180.0*
21,1,6.27200,7.90000,0,0,180.0*
1,1,0.12800,-3.13600,3.88600*
1,1,0.12800,3.13600,3.88600*
1,1,0.12800,3.13600,-3.88600*
1,1,0.12800,-3.13600,-3.88600*
%
%ADD17ROUNDEDRECTD17*%
G04:AMPARAMS|DCode=18|XSize=6.45mm|YSize=8.5mm|CornerRadius=0.0645mm|HoleSize=0mm|Usage=FLASHONLY|Rotation=180.000|XOffset=0mm|YOffset=0mm|HoleType=Round|Shape=RoundedRectangle|*
%AMROUNDEDRECTD18*
21,1,6.45000,8.37100,0,0,180.0*
21,1,6.32100,8.50000,0,0,180.0*
1,1,0.12900,-3.16050,4.18550*
1,1,0.12900,3.16050,4.18550*
1,1,0.12900,3.16050,-4.18550*
1,1,0.12900,-3.16050,-4.18550*
%
%ADD18ROUNDEDRECTD18*%
G04:AMPARAMS|DCode=19|XSize=0.55mm|YSize=0.5mm|CornerRadius=0.0625mm|HoleSize=0mm|Usage=FLASHONLY|Rotation=180.000|XOffset=0mm|YOffset=0mm|HoleType=Round|Shape=RoundedRectangle|*
%AMROUNDEDRECTD19*
21,1,0.55000,0.37500,0,0,180.0*
21,1,0.42500,0.50000,0,0,180.0*
1,1,0.12500,-0.21250,0.18750*
1,1,0.12500,0.21250,0.18750*
1,1,0.12500,0.21250,-0.18750*
1,1,0.12500,-0.21250,-0.18750*
%
%ADD19ROUNDEDRECTD19*%
D11*
X9055100Y12137281D02*
D03*
Y12230100D02*
D03*
D12*
X4682381Y12319000D02*
D03*
X4631581Y13347701D02*
D03*
X4737100Y12839700D02*
D03*
X4644281D02*
D03*
X4724400Y13347701D02*
D03*
X4775200Y12319000D02*
D03*
X4694610Y13906500D02*
D03*
X4601790D02*
D03*
D13*
X4320598Y12319000D02*
D03*
X4295198Y13347701D02*
D03*
X4320598Y12827000D02*
D03*
X8524298Y12192000D02*
D03*
X8214302D02*
D03*
X3985202Y13347701D02*
D03*
X3949700Y13906500D02*
D03*
X4259696D02*
D03*
X949902Y1993900D02*
D03*
X1259898D02*
D03*
X4010602Y12319000D02*
D03*
Y12827000D02*
D03*
D14*
X4330700Y9283400D02*
D03*
Y8293400D02*
D03*
X2781300Y8306100D02*
D03*
Y9296100D02*
D03*
D15*
X2725600Y12655600D02*
D03*
X3065600D02*
D03*
X3235600D02*
D03*
X2895600D02*
D03*
X2555600D02*
D03*
D16*
X968100Y9117700D02*
D03*
X1648100D02*
D03*
X1308100D02*
D03*
X1138100D02*
D03*
X1478100D02*
D03*
D17*
X2895600Y13690601D02*
D03*
D18*
X1308100Y10172700D02*
D03*
D19*
X10731500Y12921700D02*
D03*
Y13011700D02*
D03*
X10718800Y13651401D02*
D03*
Y13741400D02*
D03*
X9144000Y11149500D02*
D03*
Y11239500D02*
D03*
%TF.MD5,dfe28373da81ba92efac50a32812cece*%
M02*
