%TF.GenerationSoftware,Altium Limited,Altium Designer,25.7.1 (20)*%
G04 Layer_Physical_Order=5*
G04 Layer_Color=16737945*
%FSLAX45Y45*%
%MOMM*%
%TF.SameCoordinates,98D05D86-F949-4FD5-B65E-89259CC932D3*%
%TF.FilePolarity,Positive*%
%TF.FileFunction,Copper,L5,Inr,Signal*%
%TF.Part,Single*%
G01*
G75*
%TA.AperFunction,Conductor*%
%ADD10C,0.25400*%
%TA.AperFunction,ViaPad*%
%ADD21C,1.52400*%
%TA.AperFunction,ComponentPad*%
%ADD22C,1.50000*%
%ADD23R,1.50000X1.50000*%
%ADD24C,2.05000*%
%ADD25R,1.40000X1.40000*%
%ADD26R,1.45000X1.45000*%
%ADD27R,1.20000X1.20000*%
%ADD28R,1.40000X1.40000*%
%ADD29C,1.40000*%
%ADD30R,1.05000X1.05000*%
%ADD31C,1.95000*%
%ADD32R,1.95000X1.95000*%
%ADD33C,1.20000*%
%ADD34C,1.05000*%
%ADD35C,1.45000*%
%ADD36C,1.10000*%
%TA.AperFunction,ViaPad*%
%ADD37C,1.27000*%
D10*
X7264636Y11390852D02*
G03*
X7277556Y11184417I37864J-101252D01*
G01*
X7264636Y11640852D02*
G03*
X7264636Y11438348I37864J-101252D01*
G01*
Y11640852D02*
G03*
X7264636Y11688348I-9011J23748D01*
G01*
X7277556Y11894783D02*
G03*
X7264636Y11688348I24944J-105183D01*
G01*
X7282420Y11179553D02*
G03*
X7282359Y11179614I-18020J-17901D01*
G01*
X7264636Y11390852D02*
G03*
X7264636Y11438348I-9011J23748D01*
G01*
X7282360Y11899586D02*
G03*
X7282361Y11899587I-17960J17962D01*
G01*
X9652000Y3062879D02*
Y9067800D01*
X9423400Y9296400D02*
X9652000Y9067800D01*
X9169400Y3048000D02*
X9637121D01*
X9652000Y3062879D01*
X7660279Y9982200D02*
X10526121D01*
X7645400Y7620000D02*
Y9967321D01*
X10526121Y9982200D02*
X10541000Y9997079D01*
X7645400Y9967321D02*
X7660279Y9982200D01*
X10972800Y4978400D02*
Y9372600D01*
X10515600Y4521200D02*
X10972800Y4978400D01*
X10515600Y4470400D02*
Y4521200D01*
X10490200Y4495800D02*
X10515600Y4470400D01*
X10769600Y5257800D02*
Y9169400D01*
X10464800Y4953000D02*
X10769600Y5257800D01*
X8339969Y9482969D02*
X10449921D01*
X10464800Y9468090D01*
Y5257800D02*
Y9468090D01*
X8331200Y9474200D02*
X8339969Y9482969D01*
X8559800Y9296400D02*
X9423400D01*
X8102600Y10439400D02*
X8875121D01*
X8483600Y9220200D02*
X8559800Y9296400D01*
X8356600Y2768600D02*
Y6426200D01*
X8128000Y2540000D02*
X8356600Y2768600D01*
Y6426200D02*
X8585200Y6654800D01*
X7899400Y3759200D02*
X7950200Y3708400D01*
X7899400Y3759200D02*
Y6070600D01*
X7259320Y2783479D02*
Y5573121D01*
X7274199Y5588000D01*
X7416800D01*
X7759700Y2908300D02*
X7772400Y2895600D01*
X7759700Y2908300D02*
Y4381500D01*
X7747000Y4394200D02*
X7759700Y4381500D01*
X7454900Y2679700D02*
X7461250Y2686050D01*
Y4718050D01*
X7467600Y4724400D01*
X4953000Y2768600D02*
X7244441D01*
X7259320Y2783479D01*
X6309100Y4130300D02*
X7076700D01*
X6112700Y4326700D02*
X6309100Y4130300D01*
X4546600Y4326700D02*
X6112700D01*
X5298079Y3225800D02*
X6985000D01*
X5283200Y3240679D02*
X5298079Y3225800D01*
X5283200Y3240679D02*
Y3845921D01*
X5268321Y3860800D02*
X5283200Y3845921D01*
X4927600Y3860800D02*
X5268321D01*
X4927600Y2794000D02*
X4953000Y2768600D01*
X4927600Y2794000D02*
Y3581400D01*
X965200Y2413000D02*
X8534400D01*
X9169400Y3048000D01*
X1651000Y2540000D02*
X8128000D01*
X6914758Y5020279D02*
Y6650787D01*
X6899879Y6665666D02*
X6914758Y6650787D01*
X6899879Y5005400D02*
X6914758Y5020279D01*
X685800Y6172200D02*
X711200Y6197600D01*
X6496000Y5005400D02*
X6899879D01*
X5945779Y6665666D02*
X6899879D01*
X5054600Y4630240D02*
Y5496921D01*
Y4630240D02*
X5069479Y4615361D01*
X6850561D01*
X2438400Y5806079D02*
Y6426200D01*
X2453279Y5791200D02*
X4114800D01*
X2438400Y5806079D02*
X2453279Y5791200D01*
X7457079Y10261600D02*
X9205321D01*
X7442200Y7253879D02*
X7457079Y7239000D01*
X7721600D01*
X7442200Y7253879D02*
Y10246721D01*
X7457079Y10261600D01*
X6045200Y14020799D02*
X7274921D01*
X7277556Y11184417D02*
X7282359Y11179614D01*
X7289800Y11907027D02*
Y14005920D01*
X7277556Y11894783D02*
X7282360Y11899586D01*
X7112000Y7137400D02*
X7289800Y7315200D01*
X7282361Y11899587D02*
X7289800Y11907027D01*
X7274921Y14020799D02*
X7282360Y14013361D01*
X7282420Y11179553D02*
X7289800Y11172173D01*
X7282361Y14013361D02*
X7289800Y14005920D01*
Y7315200D02*
Y11172173D01*
X6497600Y7543800D02*
X7097121D01*
X6604000Y11049000D02*
X7112000Y10541000D01*
Y7558679D02*
Y10541000D01*
X7097121Y7543800D02*
X7112000Y7558679D01*
X6622635Y7137400D02*
X7112000D01*
X6034679Y8077200D02*
X6045200D01*
X6019800Y8092079D02*
X6034679Y8077200D01*
X6019800Y8092079D02*
Y12026282D01*
X6197600Y12204082D01*
Y13284200D01*
X3877007Y7835900D02*
X5930900D01*
Y6680545D02*
Y7835900D01*
Y6680545D02*
X5945779Y6665666D01*
X406400Y6223000D02*
Y7770221D01*
X421279Y7785100D01*
X3826207D01*
X3877007Y7835900D01*
X6208121Y8523879D02*
X6223000Y8509000D01*
X6208121Y8544921D02*
X6224600Y8561400D01*
X6496000D01*
X6237879Y7162800D02*
X6597235D01*
X6208121Y8523879D02*
Y8544921D01*
X6223000Y7177679D02*
Y8509000D01*
Y7177679D02*
X6237879Y7162800D01*
X5867400Y8305800D02*
Y10693400D01*
X5562600Y10998200D02*
X5867400Y10693400D01*
X6019800Y12496800D02*
Y13512801D01*
X5994400Y12471400D02*
X6019800Y12496800D01*
X5588000Y12471400D02*
X5994400D01*
X5562600Y10998200D02*
Y12446000D01*
X5588000Y12471400D01*
X6597235Y7162800D02*
X6622635Y7137400D01*
X6019800Y13995399D02*
X6045200Y14020799D01*
X6019800Y13779500D02*
Y13995399D01*
X6989800Y8178800D02*
Y10434600D01*
X6502400Y10922000D02*
Y11506200D01*
Y10922000D02*
X6989800Y10434600D01*
X6604000Y11049000D02*
Y11707307D01*
X6578600Y11732707D02*
X6604000Y11707307D01*
X6496000Y7545400D02*
X6497600Y7543800D01*
X6578600Y11732707D02*
Y11760200D01*
X6864400Y8053400D02*
X6989800Y8178800D01*
X6496000Y8053400D02*
X6864400D01*
X3454400Y6950211D02*
Y7086600D01*
X3378200Y6874011D02*
X3454400Y6950211D01*
X3708400Y5994400D02*
X3784600D01*
X3378200Y6324600D02*
X3708400Y5994400D01*
X3378200Y6324600D02*
Y6874011D01*
X4546600Y5856879D02*
Y7264400D01*
Y5856879D02*
X4586879Y5816600D01*
X5384800D01*
X406400Y6223000D02*
X457200Y6172200D01*
X685800D01*
X711200D01*
X4398558Y7747000D02*
X5700121D01*
X4383679Y7020921D02*
Y7732121D01*
X4398558Y7747000D01*
X5715000Y6426200D02*
Y7732121D01*
X5700121Y7747000D02*
X5715000Y7732121D01*
X5003800Y4495800D02*
X6223000D01*
X4953000Y4546600D02*
X5003800Y4495800D01*
X4953000Y4546600D02*
Y5319121D01*
X4383679Y7020921D02*
X4394200Y7010400D01*
X5552079Y6197600D02*
X6223000D01*
X6382900Y6037700D02*
X6479700D01*
X6496000Y6021400D01*
X5537200Y6212479D02*
X5552079Y6197600D01*
X6223000D02*
X6382900Y6037700D01*
X5537200Y6212479D02*
Y7543800D01*
X5486400Y7594600D02*
X5537200Y7543800D01*
X4790079Y7594600D02*
X5486400D01*
X4775200Y7579721D02*
X4790079Y7594600D01*
X4775200Y7416800D02*
Y7579721D01*
X5384800Y5816600D02*
X5435600Y5765800D01*
X5181600Y5664200D02*
X5232400Y5613400D01*
Y4790079D02*
X5247279Y4775200D01*
X1462679Y5664200D02*
X5181600D01*
X5232400Y4790079D02*
Y5613400D01*
X5435600Y5562600D02*
Y5765800D01*
X8875121Y10439400D02*
X8890000Y10454279D01*
Y11531600D01*
X8712200Y11709400D02*
X8890000Y11531600D01*
X8712200Y11709400D02*
Y12649200D01*
X1447800Y5679079D02*
X1462679Y5664200D01*
X5247279Y4775200D02*
X6197600D01*
X1447800Y5679079D02*
Y7340600D01*
X1778000Y5511800D02*
X5039721D01*
X5054600Y5496921D01*
X1752600Y4191000D02*
Y5486400D01*
X1778000Y5511800D01*
X1498600Y3937000D02*
X1752600Y4191000D01*
X6850561Y4615361D02*
X6883400Y4582521D01*
X1498600Y3810000D02*
Y3937000D01*
X4938121Y5334000D02*
X4953000Y5319121D01*
X1945279Y5334000D02*
X4938121D01*
X1930400Y5319121D02*
X1945279Y5334000D01*
X1930400Y3556000D02*
Y5319121D01*
X1498600Y3530600D02*
X1905000D01*
X1930400Y3556000D01*
X1498600Y2692400D02*
X1651000Y2540000D01*
X1498600Y2692400D02*
Y3225800D01*
X8996000Y8053400D02*
X8997600Y8051800D01*
X9408521D01*
X9423400Y8036921D01*
Y6939800D02*
Y8036921D01*
X9407900Y6924300D02*
X9423400Y6939800D01*
X8036300Y6924300D02*
X9407900D01*
X7721600Y7239000D02*
X8036300Y6924300D01*
X9205321Y10261600D02*
X9220200Y10276479D01*
Y10820400D01*
X7899400Y7772400D02*
X8686800D01*
X7797800Y7874000D02*
X7899400Y7772400D01*
X7797800Y7874000D02*
Y9677400D01*
X7874000Y9753600D01*
X10718800D01*
X10871200Y9906000D01*
Y12700000D01*
X10541000Y9997079D02*
Y13106400D01*
X10947400Y13512801D01*
X7645400Y7620000D02*
X7747000Y7518400D01*
X8686800D01*
X8483600Y8458200D02*
Y9220200D01*
Y8458200D02*
X8661400Y8280400D01*
D21*
X10337800Y11074400D02*
D03*
X10312400Y11455400D02*
D03*
Y11785600D02*
D03*
X10287000Y12141200D02*
D03*
X3149600Y10388600D02*
D03*
X2794000D02*
D03*
X2489200Y10363200D02*
D03*
X2209800D02*
D03*
X3149600Y10718800D02*
D03*
X2794000D02*
D03*
X2463800D02*
D03*
X2184400D02*
D03*
D22*
X6496000Y8815400D02*
D03*
Y8561400D02*
D03*
Y8307400D02*
D03*
Y8053400D02*
D03*
Y7799400D02*
D03*
Y7545400D02*
D03*
Y7291400D02*
D03*
Y7037400D02*
D03*
Y6783400D02*
D03*
Y6529400D02*
D03*
Y6275400D02*
D03*
Y6021400D02*
D03*
Y5767400D02*
D03*
Y5513400D02*
D03*
Y5259400D02*
D03*
Y5005400D02*
D03*
Y4751400D02*
D03*
Y4497400D02*
D03*
Y4243400D02*
D03*
Y3989400D02*
D03*
Y3735400D02*
D03*
X8996000Y8815400D02*
D03*
Y8561400D02*
D03*
Y8307400D02*
D03*
Y8053400D02*
D03*
Y7799400D02*
D03*
Y7545400D02*
D03*
Y7291400D02*
D03*
Y7037400D02*
D03*
Y6783400D02*
D03*
Y6529400D02*
D03*
Y6275400D02*
D03*
Y6021400D02*
D03*
Y5767400D02*
D03*
Y5513400D02*
D03*
Y5259400D02*
D03*
Y5005400D02*
D03*
Y4751400D02*
D03*
Y4497400D02*
D03*
Y4243400D02*
D03*
Y3989400D02*
D03*
Y3735400D02*
D03*
X10325116Y12877815D02*
D03*
X5041900Y6807200D02*
D03*
X3111500Y6527800D02*
D03*
X4051300Y6756400D02*
D03*
X1054100Y5664200D02*
D03*
X2120900Y7061200D02*
D03*
X4051300Y7264400D02*
D03*
Y7010400D02*
D03*
X5041900Y7315200D02*
D03*
Y7061200D02*
D03*
X1054100Y7188200D02*
D03*
Y6934200D02*
D03*
Y6680200D02*
D03*
Y6426200D02*
D03*
Y6172200D02*
D03*
Y5918200D02*
D03*
X3111500Y7289800D02*
D03*
Y7035800D02*
D03*
Y6781800D02*
D03*
Y6273800D02*
D03*
X2120900Y6553200D02*
D03*
Y6807200D02*
D03*
X10071116Y12877815D02*
D03*
D23*
X6496000Y3481400D02*
D03*
X8996000D02*
D03*
X5041900Y6553200D02*
D03*
X3111500Y6019800D02*
D03*
X4051300Y6502400D02*
D03*
X1054100Y5410200D02*
D03*
X2120900Y6299200D02*
D03*
D24*
X5181600Y10336400D02*
D03*
Y11685400D02*
D03*
X4292600D02*
D03*
Y10336400D02*
D03*
D25*
X6642100Y13737399D02*
D03*
X7302500Y12039600D02*
D03*
X6210300Y12022900D02*
D03*
X5626100Y13754100D02*
D03*
X4546600Y4826700D02*
D03*
X1068500Y4310000D02*
D03*
X2656000Y4735800D02*
D03*
D26*
X4338700Y1460500D02*
D03*
D27*
X2349500Y1180800D02*
D03*
D28*
X7687500Y13246100D02*
D03*
X2548000Y11582400D02*
D03*
X1070800Y11531600D02*
D03*
X8331200Y11137900D02*
D03*
X10071100Y13665199D02*
D03*
X8970200Y13322301D02*
D03*
D29*
X10325100Y13665199D02*
D03*
X5626100Y13004100D02*
D03*
X6642100Y12987399D02*
D03*
X8585200Y11137900D02*
D03*
X7302500Y11289600D02*
D03*
X6210300Y11272900D02*
D03*
X8187500Y13246100D02*
D03*
X9470200Y13322301D02*
D03*
X2656000Y4485800D02*
D03*
X4546600Y4576700D02*
D03*
X1068500Y4060000D02*
D03*
X3048000Y11582400D02*
D03*
X1570800Y11531600D02*
D03*
X7302500Y11539600D02*
D03*
Y11789600D02*
D03*
X4546600Y4326700D02*
D03*
Y4076700D02*
D03*
Y3826700D02*
D03*
Y3576700D02*
D03*
Y3326700D02*
D03*
Y3076700D02*
D03*
X6642100Y13237399D02*
D03*
Y13487399D02*
D03*
X1068500Y3810000D02*
D03*
Y3560000D02*
D03*
Y3310000D02*
D03*
X5626100Y13254100D02*
D03*
Y13504100D02*
D03*
X2656000Y4235800D02*
D03*
Y3985800D02*
D03*
Y3735800D02*
D03*
Y3485800D02*
D03*
Y3235800D02*
D03*
Y2985800D02*
D03*
X6210300Y11522900D02*
D03*
Y11772900D02*
D03*
D30*
X901700Y1028700D02*
D03*
D31*
X1574800Y13385800D02*
D03*
D32*
X1066800D02*
D03*
D33*
X2349500Y1943400D02*
D03*
D34*
X1028700Y1028700D02*
D03*
X1155700D02*
D03*
D35*
X4838700Y1460500D02*
D03*
D36*
X868500Y4470000D02*
D03*
D37*
X9880600Y7391400D02*
D03*
X5114380Y13470979D02*
D03*
X10167440Y10236200D02*
D03*
X8585200Y13538200D02*
D03*
X10160000Y4267200D02*
D03*
X10972800Y9372600D02*
D03*
X10769600Y9169400D02*
D03*
X8102600Y10439400D02*
D03*
X8331200Y9474200D02*
D03*
X10490200Y4495800D02*
D03*
X10464800Y5257800D02*
D03*
Y4953000D02*
D03*
X9372600Y3987800D02*
D03*
X8712200Y3683000D02*
D03*
X7950200Y3708400D02*
D03*
X7899400Y6070600D02*
D03*
X7416800Y5588000D02*
D03*
X7747000Y4394200D02*
D03*
X7772400Y2895600D02*
D03*
X7454900Y2679700D02*
D03*
X7696200Y5105400D02*
D03*
X6985000Y3225800D02*
D03*
X7076700Y4130300D02*
D03*
X7467600Y4724400D02*
D03*
X6045200Y8077200D02*
D03*
X5867400Y8305800D02*
D03*
X6502400Y11506200D02*
D03*
X2590800Y7569200D02*
D03*
X3784600Y5994400D02*
D03*
X6813158Y5765800D02*
D03*
X3454400Y5080000D02*
D03*
X9791700Y6769100D02*
D03*
X4546600Y7264400D02*
D03*
X5715000Y6426200D02*
D03*
X4114800Y5791200D02*
D03*
X5435600Y5562600D02*
D03*
X6883400Y4582521D02*
D03*
X8585200Y6654800D02*
D03*
X10871200Y12700000D02*
D03*
X8661400Y8280400D02*
D03*
X8686800Y7239000D02*
D03*
Y7518400D02*
D03*
Y7772400D02*
D03*
Y8026400D02*
D03*
X1447800Y7340600D02*
D03*
X6197600Y4775200D02*
D03*
X6223000Y4495800D02*
D03*
X8712200Y12649200D02*
D03*
X9220200Y10820400D02*
D03*
X10947400Y13512801D02*
D03*
X4775200Y7416800D02*
D03*
X4394200Y7010400D02*
D03*
X3454400Y7340600D02*
D03*
X3479800Y6807200D02*
D03*
X3454400Y7086600D02*
D03*
X2438400Y6426200D02*
D03*
X685800Y5867400D02*
D03*
X711200Y6172200D02*
D03*
X1498600Y3225800D02*
D03*
Y3530600D02*
D03*
Y3810000D02*
D03*
X3149600Y3505200D02*
D03*
Y3759200D02*
D03*
X4927600Y3581400D02*
D03*
Y3860800D02*
D03*
X965200Y2413000D02*
D03*
X6578600Y11760200D02*
D03*
X6591300Y12026900D02*
D03*
X6197600Y13284200D02*
D03*
X6019800Y13512801D02*
D03*
Y13779500D02*
D03*
X5130800Y12522200D02*
D03*
X5334000Y12319000D02*
D03*
X5003800Y13893800D02*
D03*
X889000Y609600D02*
D03*
X2654300Y1181100D02*
D03*
X3695700Y1447800D02*
D03*
X4089400Y4826000D02*
D03*
X1435100Y4305300D02*
D03*
X3048000Y4737100D02*
D03*
X4305300Y6515100D02*
D03*
X2857500Y6273800D02*
D03*
X1308100Y5410200D02*
D03*
X1866900Y6273800D02*
D03*
X5321300Y6527800D02*
D03*
X3390900Y5994400D02*
D03*
X2781300Y9588500D02*
D03*
X4737100Y9753600D02*
D03*
X4330700Y7937500D02*
D03*
X8394700Y11950700D02*
D03*
X5308600Y7061200D02*
D03*
X1828800Y8686800D02*
D03*
X7277100Y13004800D02*
D03*
X4470400Y9588500D02*
D03*
X7048500Y13779500D02*
D03*
X7721600Y12052300D02*
D03*
X3810000Y12827000D02*
D03*
X3822700Y13335001D02*
D03*
X2730500Y12344400D02*
D03*
X2946400Y12230100D02*
D03*
X965200Y8750300D02*
D03*
%TF.MD5,2f29e7e549d43236c3e3f326eff4a02d*%
M02*
