%TF.GenerationSoftware,Altium Limited,Altium Designer,25.7.1 (20)*%
G04 Layer_Color=2752767*
%FSLAX45Y45*%
%MOMM*%
%TF.SameCoordinates,98D05D86-F949-4FD5-B65E-89259CC932D3*%
%TF.FilePolarity,Positive*%
%TF.FileFunction,Drawing*%
%TF.Part,Single*%
G01*
G75*
%TA.AperFunction,NonConductor*%
%ADD73C,0.12700*%
D73*
X8255000Y457200D02*
X8280400Y482600D01*
X8305800D01*
X8280400Y508000D01*
X8305800Y533400D01*
X8280400D01*
X8255000Y558800D01*
X8229600Y533400D01*
X8204200D01*
X8229600Y508000D01*
X8204200Y482600D01*
X8229600D01*
X8255000Y457200D01*
Y477520D02*
X8270240Y492760D01*
X8285480D01*
X8270240Y508000D01*
X8285480Y523240D01*
X8270240D01*
X8255000Y538480D01*
X8239760Y523240D01*
X8224520D01*
X8239760Y508000D01*
X8224520Y492760D01*
X8239760D01*
X8255000Y477520D01*
X11328400Y3200400D02*
X11353800Y3225800D01*
X11379200D01*
X11353800Y3251200D01*
X11379200Y3276600D01*
X11353800D01*
X11328400Y3302000D01*
X11303000Y3276600D01*
X11277600D01*
X11303000Y3251200D01*
X11277600Y3225800D01*
X11303000D01*
X11328400Y3200400D01*
Y3220720D02*
X11343640Y3235960D01*
X11358880D01*
X11343640Y3251200D01*
X11358880Y3266440D01*
X11343640D01*
X11328400Y3281680D01*
X11313160Y3266440D01*
X11297920D01*
X11313160Y3251200D01*
X11297920Y3235960D01*
X11313160D01*
X11328400Y3220720D01*
%TF.MD5,cc4b8e8bd8a5cf7a58c62aa4471f56f8*%
M02*
