%TF.GenerationSoftware,Altium Limited,Altium Designer,25.7.1 (20)*%
G04 Layer_Physical_Order=1*
G04 Layer_Color=255*
%FSLAX45Y45*%
%MOMM*%
%TF.SameCoordinates,98D05D86-F949-4FD5-B65E-89259CC932D3*%
%TF.FilePolarity,Positive*%
%TF.FileFunction,Copper,L1,Top,Signal*%
%TF.Part,Single*%
G01*
G75*
%TA.AperFunction,Conductor*%
%ADD10C,0.25400*%
%TA.AperFunction,SMDPad,CuDef*%
%ADD11R,0.57247X0.58764*%
%ADD12R,0.58764X0.57247*%
%ADD13R,0.90000X1.40000*%
%ADD14R,5.40000X2.90000*%
G04:AMPARAMS|DCode=15|XSize=0.95mm|YSize=3.85mm|CornerRadius=0.05225mm|HoleSize=0mm|Usage=FLASHONLY|Rotation=180.000|XOffset=0mm|YOffset=0mm|HoleType=Round|Shape=RoundedRectangle|*
%AMROUNDEDRECTD15*
21,1,0.95000,3.74550,0,0,180.0*
21,1,0.84550,3.85000,0,0,180.0*
1,1,0.10450,-0.42275,1.87275*
1,1,0.10450,0.42275,1.87275*
1,1,0.10450,0.42275,-1.87275*
1,1,0.10450,-0.42275,-1.87275*
%
%ADD15ROUNDEDRECTD15*%
G04:AMPARAMS|DCode=16|XSize=1.05mm|YSize=4.45mm|CornerRadius=0.0525mm|HoleSize=0mm|Usage=FLASHONLY|Rotation=180.000|XOffset=0mm|YOffset=0mm|HoleType=Round|Shape=RoundedRectangle|*
%AMROUNDEDRECTD16*
21,1,1.05000,4.34500,0,0,180.0*
21,1,0.94500,4.45000,0,0,180.0*
1,1,0.10500,-0.47250,2.17250*
1,1,0.10500,0.47250,2.17250*
1,1,0.10500,0.47250,-2.17250*
1,1,0.10500,-0.47250,-2.17250*
%
%ADD16ROUNDEDRECTD16*%
G04:AMPARAMS|DCode=17|XSize=6.4mm|YSize=7.9mm|CornerRadius=0.064mm|HoleSize=0mm|Usage=FLASHONLY|Rotation=180.000|XOffset=0mm|YOffset=0mm|HoleType=Round|Shape=RoundedRectangle|*
%AMROUNDEDRECTD17*
21,1,6.40000,7.77200,0,0,180.0*
21,1,6.27200,7.90000,0,0,180.0*
1,1,0.12800,-3.13600,3.88600*
1,1,0.12800,3.13600,3.88600*
1,1,0.12800,3.13600,-3.88600*
1,1,0.12800,-3.13600,-3.88600*
%
%ADD17ROUNDEDRECTD17*%
G04:AMPARAMS|DCode=18|XSize=6.45mm|YSize=8.5mm|CornerRadius=0.0645mm|HoleSize=0mm|Usage=FLASHONLY|Rotation=180.000|XOffset=0mm|YOffset=0mm|HoleType=Round|Shape=RoundedRectangle|*
%AMROUNDEDRECTD18*
21,1,6.45000,8.37100,0,0,180.0*
21,1,6.32100,8.50000,0,0,180.0*
1,1,0.12900,-3.16050,4.18550*
1,1,0.12900,3.16050,4.18550*
1,1,0.12900,3.16050,-4.18550*
1,1,0.12900,-3.16050,-4.18550*
%
%ADD18ROUNDEDRECTD18*%
G04:AMPARAMS|DCode=19|XSize=0.55mm|YSize=0.5mm|CornerRadius=0.0625mm|HoleSize=0mm|Usage=FLASHONLY|Rotation=180.000|XOffset=0mm|YOffset=0mm|HoleType=Round|Shape=RoundedRectangle|*
%AMROUNDEDRECTD19*
21,1,0.55000,0.37500,0,0,180.0*
21,1,0.42500,0.50000,0,0,180.0*
1,1,0.12500,-0.21250,0.18750*
1,1,0.12500,0.21250,0.18750*
1,1,0.12500,0.21250,-0.18750*
1,1,0.12500,-0.21250,-0.18750*
%
%ADD19ROUNDEDRECTD19*%
%TA.AperFunction,Conductor*%
%ADD20C,1.27000*%
%TA.AperFunction,ViaPad*%
%ADD21C,1.52400*%
%TA.AperFunction,ComponentPad*%
%ADD22C,1.50000*%
%ADD23R,1.50000X1.50000*%
%ADD24C,2.05000*%
%ADD25R,1.40000X1.40000*%
%ADD26R,1.45000X1.45000*%
%ADD27R,1.20000X1.20000*%
%ADD28R,1.40000X1.40000*%
%ADD29C,1.40000*%
%ADD30R,1.05000X1.05000*%
%ADD31C,1.95000*%
%ADD32R,1.95000X1.95000*%
%ADD33C,1.20000*%
%ADD34C,1.05000*%
%ADD35C,1.45000*%
%ADD36C,1.10000*%
%TA.AperFunction,ViaPad*%
%ADD37C,1.27000*%
D10*
X5998796Y13504100D02*
G03*
X6019800Y13512801I0J29704D01*
G01*
X9880600Y7391400D02*
Y8280400D01*
X9346400Y8814600D02*
X9880600Y8280400D01*
X8996800Y8814600D02*
X9346400D01*
X8996000Y8815400D02*
X8996800Y8814600D01*
X4949064Y13470979D02*
X5114380D01*
X4870189Y13392105D02*
X4949064Y13470979D01*
X4791882Y13392105D02*
X4870189D01*
X8585200Y13538200D02*
X8902700D01*
X8610600Y10591800D02*
X9423400D01*
X8610600Y9200800D02*
Y10591800D01*
Y9200800D02*
X8996000Y8815400D01*
X9371800Y3988600D02*
X9372600Y3987800D01*
X9499600Y3672479D02*
Y8305800D01*
X8996800Y3988600D02*
X9371800D01*
X9244000Y8561400D02*
X9499600Y8305800D01*
X9256121Y3429000D02*
X9499600Y3672479D01*
X9048400Y3429000D02*
X9256121D01*
X8834508Y3683000D02*
X8882900Y3731392D01*
X8712200Y3683000D02*
X8834508D01*
X7467600Y4724400D02*
X8331200D01*
X8534400Y4927600D01*
Y5319121D01*
X8443321Y4394200D02*
X8661400Y4612279D01*
X7747000Y4394200D02*
X8443321D01*
X8316321Y5105400D02*
X8432800Y5221879D01*
X7696200Y5105400D02*
X8316321D01*
X8432800Y5221879D02*
Y5750921D01*
X8026400Y5588000D02*
X8459800Y6021400D01*
X7416800Y5588000D02*
X8026400D01*
X8459800Y6021400D02*
X8996000D01*
X8449279Y5767400D02*
X8996000D01*
X8432800Y5750921D02*
X8449279Y5767400D01*
X8549279Y5334000D02*
X8549279D01*
X8973421Y5535979D02*
X8996000Y5513400D01*
X8549279Y5334000D02*
X8751259Y5535979D01*
X8973421D01*
X8534400Y5319121D02*
X8549279Y5334000D01*
X8742000Y5259400D02*
X8996000D01*
X8661400Y5178800D02*
X8742000Y5259400D01*
X8661400Y4612279D02*
Y5178800D01*
X6812358Y5766600D02*
X6813158Y5765800D01*
X6496000Y5767400D02*
X6496800Y5766600D01*
X6812358D01*
X6502400Y11506200D02*
X6604000D01*
X6887400Y11789600D01*
X4051300Y7264400D02*
X4546600D01*
X8996000Y8561400D02*
X9244000D01*
X8996000Y3989400D02*
X8996800Y3988600D01*
X8882900Y3731392D02*
X8991992D01*
X8996000Y3735400D01*
X6806707Y4243400D02*
X6883400Y4320093D01*
Y4582521D01*
X6496000Y4243400D02*
X6806707D01*
X10854100Y12717100D02*
Y12801601D01*
X10734000Y12921700D02*
X10854100Y12801601D01*
Y12717100D02*
X10871200Y12700000D01*
X9423400Y10591800D02*
X9474200Y10642600D01*
X8982500Y8293900D02*
X8996000Y8307400D01*
X8674900Y8293900D02*
X8982500D01*
X8661400Y8280400D02*
X8674900Y8293900D01*
X8874208Y7291400D02*
X8996000D01*
X8821808Y7239000D02*
X8874208Y7291400D01*
X8686800Y7239000D02*
X8821808D01*
X8982500Y7531900D02*
X8996000Y7545400D01*
X8700300Y7531900D02*
X8982500D01*
X8686800Y7518400D02*
X8700300Y7531900D01*
X8982500Y7785900D02*
X8996000Y7799400D01*
X8700300Y7785900D02*
X8982500D01*
X8686800Y7772400D02*
X8700300Y7785900D01*
X8982500Y8039900D02*
X8996000Y8053400D01*
X8700300Y8039900D02*
X8982500D01*
X8686800Y8026400D02*
X8700300Y8039900D01*
X4051300Y7010400D02*
X4394200D01*
X6484100Y4763300D02*
X6496000Y4751400D01*
X6209500Y4763300D02*
X6484100D01*
X6197600Y4775200D02*
X6209500Y4763300D01*
X1432921Y7355479D02*
X1447800Y7340600D01*
X1157879Y7355479D02*
X1432921D01*
X1143000Y7340600D02*
X1157879Y7355479D01*
X1143000Y7277100D02*
Y7340600D01*
X1054100Y7188200D02*
X1143000Y7277100D01*
X6495200Y4496600D02*
X6496000Y4497400D01*
X6223800Y4496600D02*
X6495200D01*
X6223000Y4495800D02*
X6223800Y4496600D01*
X8275204Y12649200D02*
X8712200D01*
X8214302Y12588298D02*
X8275204Y12649200D01*
X8214302Y12192000D02*
Y12588298D01*
X10731500Y12921700D02*
X10734000D01*
X10566400Y12700000D02*
X10617200Y12750800D01*
Y13002621D01*
X10147300Y12700000D02*
X10566400D01*
X10933300Y13526900D02*
X10947400Y13512801D01*
X10845800Y13526900D02*
X10933300D01*
X10721300Y13651401D02*
X10845800Y13526900D01*
X10718800Y13651401D02*
X10721300D01*
X10124079Y12697821D02*
X10145121D01*
X10147300Y12700000D01*
X10071116Y12750784D02*
X10124079Y12697821D01*
X9144000Y10896600D02*
X9220200Y10820400D01*
X9144000Y10896600D02*
Y11149500D01*
X9027521Y10998200D02*
X9042400Y11013079D01*
Y11224621D01*
X8346079Y10998200D02*
X9027521D01*
X9474200Y10642600D02*
Y11364321D01*
X4699000Y13665199D02*
Y13906500D01*
X9459321Y11379200D02*
X9474200Y11364321D01*
X8585200Y11137900D02*
X8826500Y11379200D01*
X9459321D01*
X8996000Y3481400D02*
X9048400Y3429000D01*
X4940300Y7416800D02*
X5041900Y7315200D01*
X4775200Y7416800D02*
X4940300D01*
X3467100Y6794500D02*
X3479800Y6807200D01*
X3124200Y6794500D02*
X3467100D01*
X3111500Y6781800D02*
X3124200Y6794500D01*
X3426907Y7086600D02*
X3454400D01*
X3376107Y7035800D02*
X3426907Y7086600D01*
X3111500Y7035800D02*
X3376107D01*
X3426907Y7340600D02*
X3454400D01*
X3376107Y7289800D02*
X3426907Y7340600D01*
X3111500Y7289800D02*
X3376107D01*
X2120900Y6553200D02*
X2247900Y6426200D01*
X2438400D01*
X901958Y5918200D02*
X1054100D01*
X851158Y5867400D02*
X901958Y5918200D01*
X685800Y5867400D02*
X851158D01*
X711200Y6172200D02*
X1054100D01*
X1414400Y3310000D02*
X1498600Y3225800D01*
X1068500Y3310000D02*
X1414400D01*
X1483900Y3545300D02*
X1498600Y3530600D01*
X1083200Y3545300D02*
X1483900D01*
X1068500Y3560000D02*
X1083200Y3545300D01*
X1068500Y3810000D02*
X1498600D01*
X3139900Y3495500D02*
X3149600Y3505200D01*
X2665700Y3495500D02*
X3139900D01*
X2656000Y3485800D02*
X2665700Y3495500D01*
X3137900Y3747500D02*
X3149600Y3759200D01*
X2667700Y3747500D02*
X3137900D01*
X2656000Y3735800D02*
X2667700Y3747500D01*
X4925250Y3579050D02*
X4927600Y3581400D01*
X4548950Y3579050D02*
X4925250D01*
X4546600Y3576700D02*
X4548950Y3579050D01*
X4900107Y3860800D02*
X4927600D01*
X4866007Y3826700D02*
X4900107Y3860800D01*
X4546600Y3826700D02*
X4866007D01*
X949902Y1993900D02*
X965200Y2009198D01*
Y2413000D01*
X6496000Y8815400D02*
X8996000D01*
Y8561400D02*
Y8815400D01*
X9042400Y11224621D02*
X9057279Y11239500D01*
X9144000D01*
X6210300Y11272900D02*
X6218650Y11281250D01*
X7294150D01*
X7302500Y11289600D01*
X6205600Y11277600D02*
X6210300Y11272900D01*
X6887400Y11789600D02*
X7302500D01*
X6216650Y11766550D02*
X6572250D01*
X6210300Y11772900D02*
X6216650Y11766550D01*
X6572250D02*
X6578600Y11760200D01*
X6214300Y12026900D02*
X6591300D01*
X6212479Y13527679D02*
X6429745D01*
X6197600Y13284200D02*
Y13512801D01*
X6212479Y13527679D01*
X6470024Y13487399D02*
X6642100D01*
X6429745Y13527679D02*
X6470024Y13487399D01*
X6426200Y13258800D02*
X6515100Y13347701D01*
X7595218D01*
X6426200Y13121278D02*
Y13258800D01*
X6441079Y13106400D02*
X6627221D01*
X6426200Y13121278D02*
X6441079Y13106400D01*
X5626100Y13504100D02*
X5998796D01*
X5651500Y13779500D02*
X6019800D01*
X4730037Y12252276D02*
X4813098D01*
X4699063Y12283250D02*
Y12303076D01*
Y12283250D02*
X4730037Y12252276D01*
X4683139Y12319000D02*
X4699063Y12303076D01*
X4682380Y12319000D02*
X4683139D01*
X5021702Y12319000D02*
X5334000D01*
X4813098Y12252276D02*
X5021702Y12319000D01*
X4320598D02*
X4682381D01*
X4691937Y12772976D02*
X5038574D01*
X5130800Y12522200D01*
X4333298Y12839700D02*
X4645039D01*
X4669618Y12795295D02*
Y12815121D01*
X4645039Y12839700D02*
X4669618Y12815121D01*
Y12795295D02*
X4691937Y12772976D01*
X3619500Y12560300D02*
X4760321D01*
X4775200Y12545421D01*
Y12319000D02*
Y12545421D01*
X3568700Y12611100D02*
X3619500Y12560300D01*
X4295198Y13347701D02*
X4632339D01*
X4648263Y13363625D02*
Y13383450D01*
X4679237Y13414424D01*
X4769563D02*
X4791882Y13392105D01*
X4679237Y13414424D02*
X4769563D01*
X4632339Y13347701D02*
X4648263Y13363625D01*
X4649446Y13973224D02*
X4739773D01*
X4618472Y13942250D02*
X4649446Y13973224D01*
X4739773D02*
X4819197Y13893800D01*
X4602549Y13906500D02*
X4618472Y13922424D01*
Y13942250D01*
X4819197Y13893800D02*
X5003800D01*
X4259696Y13906500D02*
X4602549D01*
X1574800Y13385800D02*
X2590800D01*
X2895600Y13690601D01*
X5410200Y13284200D02*
Y14031322D01*
X5402761Y14038760D02*
X5410200Y14031322D01*
X5395321Y14046201D02*
X5402760Y14038760D01*
X3937000Y13919200D02*
X3949700Y13906500D01*
X3937000Y13919200D02*
Y14031322D01*
X3951879Y14046201D02*
X5395321D01*
X3937000Y14031322D02*
X3944439Y14038760D01*
X3944439Y14038760D02*
X3951879Y14046201D01*
X8187500Y13246100D02*
X8208788Y13224812D01*
X8170212Y13263388D02*
X8187500Y13246100D01*
X889000Y609600D02*
Y1016000D01*
X901700Y1028700D01*
X1155700D02*
X2108200D01*
X2123079Y1043579D01*
Y1064621D01*
X2120900Y1066800D02*
X2123079Y1064621D01*
X2120900Y1066800D02*
Y1892300D01*
X4838700Y1322979D02*
Y1460500D01*
X4823821Y1308100D02*
X4838700Y1322979D01*
X2554879Y1308100D02*
X4823821D01*
X2540000Y1322979D02*
X2554879Y1308100D01*
X2540000Y1322979D02*
Y1826621D01*
X2525121Y1841500D02*
X2540000Y1826621D01*
X2451400Y1841500D02*
X2525121D01*
X2349500Y1943400D02*
X2451400Y1841500D01*
X889000Y1041400D02*
X901700Y1028700D01*
X660400Y1041400D02*
X889000D01*
X622300Y1079500D02*
X660400Y1041400D01*
X622300Y1079500D02*
Y3884021D01*
X637179Y3898900D01*
X907400D01*
X1068500Y4060000D01*
X1028700Y1028700D02*
Y1739900D01*
X1079500Y1790700D01*
X1245019D01*
X1259898Y1805579D01*
Y1993900D01*
X2172000Y1943400D02*
X2349500D01*
X2120900Y1892300D02*
X2172000Y1943400D01*
X2349500Y1180800D02*
X2349800Y1181100D01*
X2654300D01*
X3695700Y1447800D02*
X4326000D01*
X4338700Y1460500D01*
X8331200Y11013079D02*
X8346079Y10998200D01*
X8331200Y11013079D02*
Y11137900D01*
X8585200D02*
Y11252200D01*
X8547800Y11289600D02*
X8585200Y11252200D01*
X7302500Y11289600D02*
X8547800D01*
X10725700Y13017500D02*
X10731500Y13011700D01*
X10632079Y13017500D02*
X10725700D01*
X10617200Y13002621D02*
X10632079Y13017500D01*
X10071116Y12750784D02*
Y12877815D01*
X10325100Y12877834D02*
Y13284200D01*
Y12877834D02*
X10325116Y12877815D01*
X10287000Y13322301D02*
X10325100Y13284200D01*
X10420189Y13741400D02*
X10718800D01*
X10382089Y13779500D02*
X10420189Y13741400D01*
X10085979Y13779500D02*
X10382089D01*
X10071100Y13764621D02*
X10085979Y13779500D01*
X10071100Y13665199D02*
Y13764621D01*
X10303721Y13643822D02*
X10325100Y13665199D01*
X10303721Y13557100D02*
Y13643822D01*
X10297521Y13550900D02*
X10303721Y13557100D01*
X9698800Y13550900D02*
X10297521D01*
X9470200Y13322301D02*
X9698800Y13550900D01*
X9470200Y13322301D02*
X10287000D01*
X4455700Y3985800D02*
X4546600Y4076700D01*
X2656000Y3985800D02*
X4455700D01*
X4546600Y4076700D02*
Y4326700D01*
X2656000Y3985800D02*
Y4235800D01*
X4545900Y4826000D02*
X4546600Y4826700D01*
X4089400Y4826000D02*
X4545900D01*
X1073200Y4305300D02*
X1435100D01*
X1068500Y4310000D02*
X1073200Y4305300D01*
X2657300Y4737100D02*
X3048000D01*
X2656000Y4735800D02*
X2657300Y4737100D01*
X4064000Y6515100D02*
X4305300D01*
X4051300Y6502400D02*
X4064000Y6515100D01*
X1054100Y5410200D02*
X1308100D01*
X1866900Y6273800D02*
X2095500D01*
X2120900Y6299200D01*
X4373500Y4576700D02*
X4546600D01*
X4282600Y4485800D02*
X4373500Y4576700D01*
X2656000Y4485800D02*
X4282600D01*
X2646000Y4495800D02*
X2656000Y4485800D01*
X2463800Y4495800D02*
X2646000D01*
X2425700Y4457700D02*
X2463800Y4495800D01*
X2425700Y4102100D02*
Y4457700D01*
X2383600Y4060000D02*
X2425700Y4102100D01*
X1068500Y4060000D02*
X2383600D01*
X1051800Y4076700D02*
X1068500Y4060000D01*
X825500Y4076700D02*
X1051800D01*
X775400Y4126800D02*
X825500Y4076700D01*
X775400Y4126800D02*
Y4984668D01*
X876300Y5085568D01*
Y5638800D01*
X901700Y5664200D01*
X1054100D01*
X4838700Y6807200D02*
X5041900D01*
X4787900Y6756400D02*
X4838700Y6807200D01*
X4051300Y6756400D02*
X4787900D01*
X2070100Y7061200D02*
X2120900D01*
X3812179Y6756400D02*
X4051300D01*
X3797300Y6741521D02*
X3812179Y6756400D01*
X3797300Y6565900D02*
Y6741521D01*
X3759200Y6527800D02*
X3797300Y6565900D01*
X3111500Y6527800D02*
X3759200D01*
X1803400Y8001000D02*
Y8468721D01*
Y8001000D02*
X2032000Y7772400D01*
X1788521Y8483600D02*
X1803400Y8468721D01*
X1333500Y8483600D02*
X1788521D01*
X1981200Y8102600D02*
X2019300Y8064500D01*
X1943100Y9499600D02*
X1981200Y9461500D01*
Y8102600D02*
Y9461500D01*
X2019300Y8064500D02*
X2766421D01*
X2032000Y7162005D02*
Y7772400D01*
Y7162005D02*
X2086154Y7107852D01*
X2070100Y7061200D02*
X2086154Y7077254D01*
Y7107852D01*
X1308100Y7061200D02*
X2070100D01*
X1257300Y7010400D02*
X1308100Y7061200D01*
X1257300Y5867400D02*
Y7010400D01*
X1054100Y5664200D02*
X1257300Y5867400D01*
X2933700Y6527800D02*
X3111500D01*
X2882900Y6578600D02*
X2933700Y6527800D01*
X2882900Y6578600D02*
Y6972300D01*
X2794000Y7061200D02*
X2882900Y6972300D01*
X2120900Y7061200D02*
X2794000D01*
X1308100Y8509000D02*
X1333500Y8483600D01*
X1308100Y8509000D02*
Y8650879D01*
X5067300Y6527800D02*
X5321300D01*
X5041900Y6553200D02*
X5067300Y6527800D01*
X3136900Y5994400D02*
X3390900D01*
X3111500Y6019800D02*
X3136900Y5994400D01*
X4330700Y7937500D02*
Y8293400D01*
X4737100Y9753600D02*
Y10248900D01*
X4824600Y10336400D01*
X5181600D01*
X3392985Y9715500D02*
X3494585Y9613900D01*
X2000156D02*
X2101756Y9715500D01*
X3392985D01*
X2781300Y9296100D02*
Y9588500D01*
X8521700Y12077700D02*
Y12189402D01*
X8394700Y11950700D02*
X8521700Y12077700D01*
Y12189402D02*
X8524298Y12192000D01*
X5041900Y7061200D02*
X5308600D01*
X8524298Y12192000D02*
X8839200D01*
X8877300Y12230100D01*
X9055100D01*
X9470200Y13322301D02*
X9563100Y13229401D01*
Y12166600D02*
Y13229401D01*
X9533781Y12137281D02*
X9563100Y12166600D01*
X9055100Y12137281D02*
X9533781D01*
X8291812Y13082288D02*
X9437388D01*
X8208788Y13165312D02*
X8291812Y13082288D01*
X8970200Y13322301D02*
Y13470700D01*
X8902700Y13538200D02*
X8970200Y13470700D01*
X1495700Y8686800D02*
X1828800D01*
X1478100Y8704400D02*
X1495700Y8686800D01*
X1478100Y8704400D02*
Y9117700D01*
X1138100Y9256600D02*
Y9499058D01*
X3494585Y9613900D02*
X4241800D01*
X1252942D02*
X2000156D01*
X9461500Y13313600D02*
X9470200Y13322301D01*
X9461500Y13106400D02*
Y13313600D01*
X9437388Y13082288D02*
X9461500Y13106400D01*
X7277100Y13004800D02*
X7446200D01*
X7687500Y13246100D01*
X8170212Y13263388D02*
Y13394388D01*
X8140700Y13423900D02*
X8170212Y13394388D01*
X7671418Y13423900D02*
X8140700D01*
X7595218Y13347701D02*
X7671418Y13423900D01*
X6627221Y13106400D02*
X6642100Y13091521D01*
Y12987399D02*
Y13091521D01*
X8208788Y13165312D02*
Y13224812D01*
X4330700Y9283400D02*
X4338100D01*
X4470400Y9415700D01*
Y9588500D01*
X2781300Y8079379D02*
Y8306100D01*
X2766421Y8064500D02*
X2781300Y8079379D01*
X1232379Y9499600D02*
X1943100D01*
X1217500Y9484721D02*
X1232379Y9499600D01*
X1217500Y9311279D02*
Y9484721D01*
X1202621Y9296400D02*
X1217500Y9311279D01*
X1177900Y9296400D02*
X1202621D01*
X1138100Y9256600D02*
X1177900Y9296400D01*
X1138100Y9117700D02*
Y9256600D01*
X7315200Y12052300D02*
X7721600D01*
X5626100Y13754100D02*
X5651500Y13779500D01*
X6684200D02*
X7048500D01*
X6210300Y12022900D02*
X6214300Y12026900D01*
X7302500Y12039600D02*
X7315200Y12052300D01*
X6642100Y13737399D02*
X6684200Y13779500D01*
X3810000Y12827000D02*
X4010602D01*
X3972502Y13335001D02*
X3985202Y13347701D01*
X3822700Y13335001D02*
X3972502D01*
X3710579Y13157201D02*
X4686300D01*
X3695700Y13172079D02*
Y13447121D01*
X3568700Y13462000D02*
X3680821D01*
X3695700Y13447121D01*
Y13172079D02*
X3710579Y13157201D01*
X6642100Y13237399D02*
X6815900D01*
X6832600Y13220700D01*
Y12651379D02*
Y13220700D01*
X6817721Y12636500D02*
X6832600Y12651379D01*
X5702300Y12636500D02*
X6817721D01*
X5638800Y12573000D02*
X5702300Y12636500D01*
X5638800Y12179300D02*
Y12573000D01*
X5588000Y12128500D02*
X5638800Y12179300D01*
X4051300Y12128500D02*
X5588000D01*
X4010602Y12169198D02*
X4051300Y12128500D01*
X4010602Y12169198D02*
Y12319000D01*
X5621400Y13258800D02*
X5626100Y13254100D01*
X5435600Y13258800D02*
X5621400D01*
X5410200Y13284200D02*
X5435600Y13258800D01*
X6633750Y12995750D02*
X6642100Y12987399D01*
X5634450Y12995750D02*
X6633750D01*
X5626100Y13004100D02*
X5634450Y12995750D01*
X5626100Y12865100D02*
Y13004100D01*
X5600700Y12839700D02*
X5626100Y12865100D01*
X4737100Y12839700D02*
X5600700D01*
X6007100Y11277600D02*
X6205600D01*
X5969000Y11315700D02*
X6007100Y11277600D01*
X5969000Y11315700D02*
Y11645900D01*
X5929500Y11685400D02*
X5969000Y11645900D01*
X5181600Y11685400D02*
X5929500D01*
X2725600Y12655600D02*
X2730500Y12650700D01*
Y12344400D02*
Y12650700D01*
X3065600Y12349300D02*
Y12655600D01*
X2946400Y12230100D02*
X3065600Y12349300D01*
X965200Y9114800D02*
X968100Y9117700D01*
X965200Y8750300D02*
Y9114800D01*
X812800Y8712200D02*
Y9288206D01*
X889000Y8636000D02*
X1293221D01*
X812800Y8712200D02*
X889000Y8636000D01*
X1308100Y8650879D02*
Y9117700D01*
X1293221Y8636000D02*
X1308100Y8650879D01*
Y9117700D02*
Y9383121D01*
X1004750Y9480157D02*
Y9869350D01*
X812800Y9288206D02*
X1004750Y9480157D01*
Y9869350D02*
X1308100Y10172700D01*
Y11493500D01*
X3048000Y12081164D02*
X3225800Y12258964D01*
X3048000Y11582400D02*
Y12081164D01*
X3225800Y12258964D02*
Y12645800D01*
X1138100Y9499058D02*
X1252942Y9613900D01*
X4241800D02*
X4318000Y9690100D01*
X1346200Y11531600D02*
X1570800D01*
X1308100Y11493500D02*
X1346200Y11531600D01*
X1648100Y9117700D02*
X1651000Y9120600D01*
Y9383121D01*
X1636121Y9398000D02*
X1651000Y9383121D01*
X1322979Y9398000D02*
X1636121D01*
X1308100Y9383121D02*
X1322979Y9398000D01*
X4292600Y10336400D02*
X4318000Y10311000D01*
Y9690100D02*
Y10311000D01*
X4292600Y11685400D02*
X5181600D01*
X4154300D02*
X4292600D01*
X4051300Y11582400D02*
X4154300Y11685400D01*
X3048000Y11582400D02*
X4051300D01*
X3568700Y12611100D02*
Y13055600D01*
X4320598Y12827000D02*
X4333298Y12839700D01*
X3568700Y13055600D02*
Y13462000D01*
Y13627100D01*
X4737100Y12839700D02*
Y12941299D01*
X4686300Y12992101D02*
X4737100Y12941299D01*
X3632200Y12992101D02*
X4686300D01*
X3568700Y13055600D02*
X3632200Y12992101D01*
X3505200Y13690601D02*
X3568700Y13627100D01*
X2895600Y13690601D02*
X3505200D01*
X3606800D01*
X4724400Y13195300D02*
Y13347701D01*
X4686300Y13157201D02*
X4724400Y13195300D01*
X4635500Y13601700D02*
X4699000Y13665199D01*
X3695700Y13601700D02*
X4635500D01*
X3606800Y13690601D02*
X3695700Y13601700D01*
X1625600Y11353800D02*
X2949648D01*
X3048000Y11452152D01*
Y11582400D01*
X3235600Y12655600D02*
Y13058501D01*
X3196500Y13097600D02*
X3235600Y13058501D01*
X3225800Y12645800D02*
X3235600Y12655600D01*
X3196500Y13097600D02*
Y13389700D01*
X2895600Y13690601D02*
X3196500Y13389700D01*
X2895600Y12655600D02*
Y13690601D01*
X1570800Y11408600D02*
X1625600Y11353800D01*
X1570800Y11408600D02*
Y11531600D01*
D11*
X9055100Y12137281D02*
D03*
Y12230100D02*
D03*
D12*
X4682381Y12319000D02*
D03*
X4631581Y13347701D02*
D03*
X4737100Y12839700D02*
D03*
X4644281D02*
D03*
X4724400Y13347701D02*
D03*
X4775200Y12319000D02*
D03*
X4694610Y13906500D02*
D03*
X4601790D02*
D03*
D13*
X4320598Y12319000D02*
D03*
X4295198Y13347701D02*
D03*
X4320598Y12827000D02*
D03*
X8524298Y12192000D02*
D03*
X8214302D02*
D03*
X3985202Y13347701D02*
D03*
X3949700Y13906500D02*
D03*
X4259696D02*
D03*
X949902Y1993900D02*
D03*
X1259898D02*
D03*
X4010602Y12319000D02*
D03*
Y12827000D02*
D03*
D14*
X4330700Y9283400D02*
D03*
Y8293400D02*
D03*
X2781300Y8306100D02*
D03*
Y9296100D02*
D03*
D15*
X2725600Y12655600D02*
D03*
X3065600D02*
D03*
X3235600D02*
D03*
X2895600D02*
D03*
X2555600D02*
D03*
D16*
X968100Y9117700D02*
D03*
X1648100D02*
D03*
X1308100D02*
D03*
X1138100D02*
D03*
X1478100D02*
D03*
D17*
X2895600Y13690601D02*
D03*
D18*
X1308100Y10172700D02*
D03*
D19*
X10731500Y12921700D02*
D03*
Y13011700D02*
D03*
X10718800Y13651401D02*
D03*
Y13741400D02*
D03*
X9144000Y11149500D02*
D03*
Y11239500D02*
D03*
D20*
X1068800Y11533600D02*
X1070800Y11531600D01*
X1068800Y11533600D02*
Y13383800D01*
X1066800Y13385800D02*
X1068800Y13383800D01*
X2041391Y12655600D02*
X2555600D01*
X1388400Y13308591D02*
X2041391Y12655600D01*
X1388400Y13308591D02*
Y13311404D01*
X1314005Y13385800D02*
X1388400Y13311404D01*
X1066800Y13385800D02*
X1314005D01*
D21*
X10337800Y11074400D02*
D03*
X10312400Y11455400D02*
D03*
Y11785600D02*
D03*
X10287000Y12141200D02*
D03*
X3149600Y10388600D02*
D03*
X2794000D02*
D03*
X2489200Y10363200D02*
D03*
X2209800D02*
D03*
X3149600Y10718800D02*
D03*
X2794000D02*
D03*
X2463800D02*
D03*
X2184400D02*
D03*
D22*
X6496000Y8815400D02*
D03*
Y8561400D02*
D03*
Y8307400D02*
D03*
Y8053400D02*
D03*
Y7799400D02*
D03*
Y7545400D02*
D03*
Y7291400D02*
D03*
Y7037400D02*
D03*
Y6783400D02*
D03*
Y6529400D02*
D03*
Y6275400D02*
D03*
Y6021400D02*
D03*
Y5767400D02*
D03*
Y5513400D02*
D03*
Y5259400D02*
D03*
Y5005400D02*
D03*
Y4751400D02*
D03*
Y4497400D02*
D03*
Y4243400D02*
D03*
Y3989400D02*
D03*
Y3735400D02*
D03*
X8996000Y8815400D02*
D03*
Y8561400D02*
D03*
Y8307400D02*
D03*
Y8053400D02*
D03*
Y7799400D02*
D03*
Y7545400D02*
D03*
Y7291400D02*
D03*
Y7037400D02*
D03*
Y6783400D02*
D03*
Y6529400D02*
D03*
Y6275400D02*
D03*
Y6021400D02*
D03*
Y5767400D02*
D03*
Y5513400D02*
D03*
Y5259400D02*
D03*
Y5005400D02*
D03*
Y4751400D02*
D03*
Y4497400D02*
D03*
Y4243400D02*
D03*
Y3989400D02*
D03*
Y3735400D02*
D03*
X10325116Y12877815D02*
D03*
X5041900Y6807200D02*
D03*
X3111500Y6527800D02*
D03*
X4051300Y6756400D02*
D03*
X1054100Y5664200D02*
D03*
X2120900Y7061200D02*
D03*
X4051300Y7264400D02*
D03*
Y7010400D02*
D03*
X5041900Y7315200D02*
D03*
Y7061200D02*
D03*
X1054100Y7188200D02*
D03*
Y6934200D02*
D03*
Y6680200D02*
D03*
Y6426200D02*
D03*
Y6172200D02*
D03*
Y5918200D02*
D03*
X3111500Y7289800D02*
D03*
Y7035800D02*
D03*
Y6781800D02*
D03*
Y6273800D02*
D03*
X2120900Y6553200D02*
D03*
Y6807200D02*
D03*
X10071116Y12877815D02*
D03*
D23*
X6496000Y3481400D02*
D03*
X8996000D02*
D03*
X5041900Y6553200D02*
D03*
X3111500Y6019800D02*
D03*
X4051300Y6502400D02*
D03*
X1054100Y5410200D02*
D03*
X2120900Y6299200D02*
D03*
D24*
X5181600Y10336400D02*
D03*
Y11685400D02*
D03*
X4292600D02*
D03*
Y10336400D02*
D03*
D25*
X6642100Y13737399D02*
D03*
X7302500Y12039600D02*
D03*
X6210300Y12022900D02*
D03*
X5626100Y13754100D02*
D03*
X4546600Y4826700D02*
D03*
X1068500Y4310000D02*
D03*
X2656000Y4735800D02*
D03*
D26*
X4338700Y1460500D02*
D03*
D27*
X2349500Y1180800D02*
D03*
D28*
X7687500Y13246100D02*
D03*
X2548000Y11582400D02*
D03*
X1070800Y11531600D02*
D03*
X8331200Y11137900D02*
D03*
X10071100Y13665199D02*
D03*
X8970200Y13322301D02*
D03*
D29*
X10325100Y13665199D02*
D03*
X5626100Y13004100D02*
D03*
X6642100Y12987399D02*
D03*
X8585200Y11137900D02*
D03*
X7302500Y11289600D02*
D03*
X6210300Y11272900D02*
D03*
X8187500Y13246100D02*
D03*
X9470200Y13322301D02*
D03*
X2656000Y4485800D02*
D03*
X4546600Y4576700D02*
D03*
X1068500Y4060000D02*
D03*
X3048000Y11582400D02*
D03*
X1570800Y11531600D02*
D03*
X7302500Y11539600D02*
D03*
Y11789600D02*
D03*
X4546600Y4326700D02*
D03*
Y4076700D02*
D03*
Y3826700D02*
D03*
Y3576700D02*
D03*
Y3326700D02*
D03*
Y3076700D02*
D03*
X6642100Y13237399D02*
D03*
Y13487399D02*
D03*
X1068500Y3810000D02*
D03*
Y3560000D02*
D03*
Y3310000D02*
D03*
X5626100Y13254100D02*
D03*
Y13504100D02*
D03*
X2656000Y4235800D02*
D03*
Y3985800D02*
D03*
Y3735800D02*
D03*
Y3485800D02*
D03*
Y3235800D02*
D03*
Y2985800D02*
D03*
X6210300Y11522900D02*
D03*
Y11772900D02*
D03*
D30*
X901700Y1028700D02*
D03*
D31*
X1574800Y13385800D02*
D03*
D32*
X1066800D02*
D03*
D33*
X2349500Y1943400D02*
D03*
D34*
X1028700Y1028700D02*
D03*
X1155700D02*
D03*
D35*
X4838700Y1460500D02*
D03*
D36*
X868500Y4470000D02*
D03*
D37*
X9880600Y7391400D02*
D03*
X5114380Y13470979D02*
D03*
X10167440Y10236200D02*
D03*
X8585200Y13538200D02*
D03*
X10160000Y4267200D02*
D03*
X10972800Y9372600D02*
D03*
X10769600Y9169400D02*
D03*
X8102600Y10439400D02*
D03*
X8331200Y9474200D02*
D03*
X10490200Y4495800D02*
D03*
X10464800Y5257800D02*
D03*
Y4953000D02*
D03*
X9372600Y3987800D02*
D03*
X8712200Y3683000D02*
D03*
X7950200Y3708400D02*
D03*
X7899400Y6070600D02*
D03*
X7416800Y5588000D02*
D03*
X7747000Y4394200D02*
D03*
X7772400Y2895600D02*
D03*
X7454900Y2679700D02*
D03*
X7696200Y5105400D02*
D03*
X6985000Y3225800D02*
D03*
X7076700Y4130300D02*
D03*
X7467600Y4724400D02*
D03*
X6045200Y8077200D02*
D03*
X5867400Y8305800D02*
D03*
X6502400Y11506200D02*
D03*
X2590800Y7569200D02*
D03*
X3784600Y5994400D02*
D03*
X6813158Y5765800D02*
D03*
X3454400Y5080000D02*
D03*
X9791700Y6769100D02*
D03*
X4546600Y7264400D02*
D03*
X5715000Y6426200D02*
D03*
X4114800Y5791200D02*
D03*
X5435600Y5562600D02*
D03*
X6883400Y4582521D02*
D03*
X8585200Y6654800D02*
D03*
X10871200Y12700000D02*
D03*
X8661400Y8280400D02*
D03*
X8686800Y7239000D02*
D03*
Y7518400D02*
D03*
Y7772400D02*
D03*
Y8026400D02*
D03*
X1447800Y7340600D02*
D03*
X6197600Y4775200D02*
D03*
X6223000Y4495800D02*
D03*
X8712200Y12649200D02*
D03*
X9220200Y10820400D02*
D03*
X10947400Y13512801D02*
D03*
X4775200Y7416800D02*
D03*
X4394200Y7010400D02*
D03*
X3454400Y7340600D02*
D03*
X3479800Y6807200D02*
D03*
X3454400Y7086600D02*
D03*
X2438400Y6426200D02*
D03*
X685800Y5867400D02*
D03*
X711200Y6172200D02*
D03*
X1498600Y3225800D02*
D03*
Y3530600D02*
D03*
Y3810000D02*
D03*
X3149600Y3505200D02*
D03*
Y3759200D02*
D03*
X4927600Y3581400D02*
D03*
Y3860800D02*
D03*
X965200Y2413000D02*
D03*
X6578600Y11760200D02*
D03*
X6591300Y12026900D02*
D03*
X6197600Y13284200D02*
D03*
X6019800Y13512801D02*
D03*
Y13779500D02*
D03*
X5130800Y12522200D02*
D03*
X5334000Y12319000D02*
D03*
X5003800Y13893800D02*
D03*
X889000Y609600D02*
D03*
X2654300Y1181100D02*
D03*
X3695700Y1447800D02*
D03*
X4089400Y4826000D02*
D03*
X1435100Y4305300D02*
D03*
X3048000Y4737100D02*
D03*
X4305300Y6515100D02*
D03*
X2857500Y6273800D02*
D03*
X1308100Y5410200D02*
D03*
X1866900Y6273800D02*
D03*
X5321300Y6527800D02*
D03*
X3390900Y5994400D02*
D03*
X2781300Y9588500D02*
D03*
X4737100Y9753600D02*
D03*
X4330700Y7937500D02*
D03*
X8394700Y11950700D02*
D03*
X5308600Y7061200D02*
D03*
X1828800Y8686800D02*
D03*
X7277100Y13004800D02*
D03*
X4470400Y9588500D02*
D03*
X7048500Y13779500D02*
D03*
X7721600Y12052300D02*
D03*
X3810000Y12827000D02*
D03*
X3822700Y13335001D02*
D03*
X2730500Y12344400D02*
D03*
X2946400Y12230100D02*
D03*
X965200Y8750300D02*
D03*
%TF.MD5,d0e4cf8e43f16266e74b16341c70f659*%
M02*
