%TF.GenerationSoftware,Altium Limited,Altium Designer,25.7.1 (20)*%
G04 Layer_Color=2752767*
%FSLAX45Y45*%
%MOMM*%
%TF.SameCoordinates,98D05D86-F949-4FD5-B65E-89259CC932D3*%
%TF.FilePolarity,Positive*%
%TF.FileFunction,Drawing*%
%TF.Part,Single*%
G01*
G75*
%TA.AperFunction,NonConductor*%
%ADD73C,0.12700*%
%ADD74C,0.16933*%
%ADD75C,0.10160*%
D73*
X11328400Y3200400D02*
X11277600Y3302000D01*
X11379200D01*
X11328400Y3200400D01*
Y3220720D02*
X11297920Y3281680D01*
X11358880D01*
X11328400Y3220720D01*
X8255000Y457200D02*
X8204200Y558800D01*
X8305800D01*
X8255000Y457200D01*
Y477520D02*
X8224520Y538480D01*
X8285480D01*
X8255000Y477520D01*
X10337800Y11023600D02*
X10287000Y11125200D01*
X10388600D01*
X10337800Y11023600D01*
Y11043920D02*
X10307320Y11104880D01*
X10368280D01*
X10337800Y11043920D01*
X10312400Y11404600D02*
X10261600Y11506200D01*
X10363200D01*
X10312400Y11404600D01*
Y11424920D02*
X10281920Y11485880D01*
X10342880D01*
X10312400Y11424920D01*
Y11734800D02*
X10261600Y11836400D01*
X10363200D01*
X10312400Y11734800D01*
Y11755120D02*
X10281920Y11816080D01*
X10342880D01*
X10312400Y11755120D01*
X10287000Y12090400D02*
X10236200Y12192000D01*
X10337800D01*
X10287000Y12090400D01*
Y12110720D02*
X10256520Y12171680D01*
X10317480D01*
X10287000Y12110720D01*
X3149600Y10337800D02*
X3098800Y10439400D01*
X3200400D01*
X3149600Y10337800D01*
Y10358120D02*
X3119120Y10419080D01*
X3180080D01*
X3149600Y10358120D01*
X2794000Y10337800D02*
X2743200Y10439400D01*
X2844800D01*
X2794000Y10337800D01*
Y10358120D02*
X2763520Y10419080D01*
X2824480D01*
X2794000Y10358120D01*
X2489200Y10312400D02*
X2438400Y10414000D01*
X2540000D01*
X2489200Y10312400D01*
Y10332720D02*
X2458720Y10393680D01*
X2519680D01*
X2489200Y10332720D01*
X2209800Y10312400D02*
X2159000Y10414000D01*
X2260600D01*
X2209800Y10312400D01*
Y10332720D02*
X2179320Y10393680D01*
X2240280D01*
X2209800Y10332720D01*
X3149600Y10668000D02*
X3098800Y10769600D01*
X3200400D01*
X3149600Y10668000D01*
Y10688320D02*
X3119120Y10749280D01*
X3180080D01*
X3149600Y10688320D01*
X2794000Y10668000D02*
X2743200Y10769600D01*
X2844800D01*
X2794000Y10668000D01*
Y10688320D02*
X2763520Y10749280D01*
X2824480D01*
X2794000Y10688320D01*
X2463800Y10668000D02*
X2413000Y10769600D01*
X2514600D01*
X2463800Y10668000D01*
Y10688320D02*
X2433320Y10749280D01*
X2494280D01*
X2463800Y10688320D01*
X2184400Y10668000D02*
X2133600Y10769600D01*
X2235200D01*
X2184400Y10668000D01*
Y10688320D02*
X2153920Y10749280D01*
X2214880D01*
X2184400Y10688320D01*
X6445200Y8764600D02*
Y8866200D01*
X6546800D01*
Y8764600D01*
X6445200D01*
Y8510600D02*
Y8612200D01*
X6546800D01*
Y8510600D01*
X6445200D01*
Y8256600D02*
Y8358200D01*
X6546800D01*
Y8256600D01*
X6445200D01*
Y8002600D02*
Y8104200D01*
X6546800D01*
Y8002600D01*
X6445200D01*
Y7748600D02*
Y7850200D01*
X6546800D01*
Y7748600D01*
X6445200D01*
Y7494600D02*
Y7596200D01*
X6546800D01*
Y7494600D01*
X6445200D01*
Y7240600D02*
Y7342200D01*
X6546800D01*
Y7240600D01*
X6445200D01*
Y6986600D02*
Y7088200D01*
X6546800D01*
Y6986600D01*
X6445200D01*
Y6732600D02*
Y6834200D01*
X6546800D01*
Y6732600D01*
X6445200D01*
Y6478600D02*
Y6580200D01*
X6546800D01*
Y6478600D01*
X6445200D01*
Y6224600D02*
Y6326200D01*
X6546800D01*
Y6224600D01*
X6445200D01*
Y5970600D02*
Y6072200D01*
X6546800D01*
Y5970600D01*
X6445200D01*
Y5716600D02*
Y5818200D01*
X6546800D01*
Y5716600D01*
X6445200D01*
Y5462600D02*
Y5564200D01*
X6546800D01*
Y5462600D01*
X6445200D01*
Y5208600D02*
Y5310200D01*
X6546800D01*
Y5208600D01*
X6445200D01*
Y4954600D02*
Y5056200D01*
X6546800D01*
Y4954600D01*
X6445200D01*
Y4700600D02*
Y4802200D01*
X6546800D01*
Y4700600D01*
X6445200D01*
Y4446600D02*
Y4548200D01*
X6546800D01*
Y4446600D01*
X6445200D01*
Y4192600D02*
Y4294200D01*
X6546800D01*
Y4192600D01*
X6445200D01*
Y3938600D02*
Y4040200D01*
X6546800D01*
Y3938600D01*
X6445200D01*
Y3684600D02*
Y3786200D01*
X6546800D01*
Y3684600D01*
X6445200D01*
Y3430600D02*
Y3532200D01*
X6546800D01*
Y3430600D01*
X6445200D01*
X8945200Y8764600D02*
Y8866200D01*
X9046800D01*
Y8764600D01*
X8945200D01*
Y8510600D02*
Y8612200D01*
X9046800D01*
Y8510600D01*
X8945200D01*
Y8256600D02*
Y8358200D01*
X9046800D01*
Y8256600D01*
X8945200D01*
Y8002600D02*
Y8104200D01*
X9046800D01*
Y8002600D01*
X8945200D01*
Y7748600D02*
Y7850200D01*
X9046800D01*
Y7748600D01*
X8945200D01*
Y7494600D02*
Y7596200D01*
X9046800D01*
Y7494600D01*
X8945200D01*
Y7240600D02*
Y7342200D01*
X9046800D01*
Y7240600D01*
X8945200D01*
Y6986600D02*
Y7088200D01*
X9046800D01*
Y6986600D01*
X8945200D01*
Y6732600D02*
Y6834200D01*
X9046800D01*
Y6732600D01*
X8945200D01*
Y6478600D02*
Y6580200D01*
X9046800D01*
Y6478600D01*
X8945200D01*
Y6224600D02*
Y6326200D01*
X9046800D01*
Y6224600D01*
X8945200D01*
Y5970600D02*
Y6072200D01*
X9046800D01*
Y5970600D01*
X8945200D01*
Y5716600D02*
Y5818200D01*
X9046800D01*
Y5716600D01*
X8945200D01*
Y5462600D02*
Y5564200D01*
X9046800D01*
Y5462600D01*
X8945200D01*
Y5208600D02*
Y5310200D01*
X9046800D01*
Y5208600D01*
X8945200D01*
Y4954600D02*
Y5056200D01*
X9046800D01*
Y4954600D01*
X8945200D01*
Y4700600D02*
Y4802200D01*
X9046800D01*
Y4700600D01*
X8945200D01*
Y4446600D02*
Y4548200D01*
X9046800D01*
Y4446600D01*
X8945200D01*
Y4192600D02*
Y4294200D01*
X9046800D01*
Y4192600D01*
X8945200D01*
Y3938600D02*
Y4040200D01*
X9046800D01*
Y3938600D01*
X8945200D01*
Y3684600D02*
Y3786200D01*
X9046800D01*
Y3684600D01*
X8945200D01*
Y3430600D02*
Y3532200D01*
X9046800D01*
Y3430600D01*
X8945200D01*
X5130800Y10285600D02*
X5156200D01*
X5181600Y10311000D01*
X5207000Y10285600D01*
X5232400D01*
Y10311000D01*
X5207000Y10336400D01*
X5232400Y10361800D01*
Y10387200D01*
X5207000D01*
X5181600Y10361800D01*
X5156200Y10387200D01*
X5130800D01*
Y10361800D01*
X5156200Y10336400D01*
X5130800Y10311000D01*
Y10285600D01*
X6591300Y13686600D02*
Y13788200D01*
X6692900D01*
Y13686600D01*
X6591300D01*
X7251700Y11988800D02*
Y12090400D01*
X7353300D01*
Y11988800D01*
X7251700D01*
X6159500Y11972100D02*
Y12073700D01*
X6261100D01*
Y11972100D01*
X6159500D01*
X5575300Y13703300D02*
Y13804900D01*
X5676900D01*
Y13703300D01*
X5575300D01*
X4287900Y1409700D02*
Y1511300D01*
X4389500D01*
Y1409700D01*
X4287900D01*
X4308220Y1430020D02*
Y1490980D01*
X4369180D01*
Y1430020D01*
X4308220D01*
X2298700Y1180800D02*
X2349500Y1231600D01*
X2400300Y1180800D01*
X2349500Y1130000D01*
X2298700Y1180800D01*
X7636700Y13195300D02*
Y13296899D01*
X7738300D01*
Y13195300D01*
X7636700D01*
X4991100Y6502400D02*
Y6604000D01*
X5092700D01*
Y6502400D01*
X4991100D01*
X3060700Y5969000D02*
Y6070600D01*
X3162300D01*
Y5969000D01*
X3060700D01*
X2497200Y11531600D02*
Y11633200D01*
X2598800D01*
Y11531600D01*
X2497200D01*
X10274300Y13614400D02*
Y13716000D01*
X10375900D01*
Y13614400D01*
X10274300D01*
X5575300Y12953300D02*
Y13054900D01*
X5676900D01*
Y12953300D01*
X5575300D01*
X6591300Y12936600D02*
Y13038200D01*
X6692900D01*
Y12936600D01*
X6591300D01*
X8534400Y11087100D02*
X8559800Y11137900D01*
X8534400Y11188700D01*
X8585200Y11163300D01*
X8636000Y11188700D01*
X8610600Y11137900D01*
X8636000Y11087100D01*
X8585200Y11112500D01*
X8534400Y11087100D01*
X7251700Y11238800D02*
Y11340400D01*
X7353300D01*
Y11238800D01*
X7251700D01*
X6159500Y11222100D02*
Y11323700D01*
X6261100D01*
Y11222100D01*
X6159500D01*
X5130800Y11634600D02*
X5156200D01*
X5181600Y11660000D01*
X5207000Y11634600D01*
X5232400D01*
Y11660000D01*
X5207000Y11685400D01*
X5232400Y11710800D01*
Y11736200D01*
X5207000D01*
X5181600Y11710800D01*
X5156200Y11736200D01*
X5130800D01*
Y11710800D01*
X5156200Y11685400D01*
X5130800Y11660000D01*
Y11634600D01*
X8136700Y13195300D02*
Y13296899D01*
X8238300D01*
Y13195300D01*
X8136700D01*
X4241800Y11634600D02*
X4267200D01*
X4292600Y11660000D01*
X4318000Y11634600D01*
X4343400D01*
Y11660000D01*
X4318000Y11685400D01*
X4343400Y11710800D01*
Y11736200D01*
X4318000D01*
X4292600Y11710800D01*
X4267200Y11736200D01*
X4241800D01*
Y11710800D01*
X4267200Y11685400D01*
X4241800Y11660000D01*
Y11634600D01*
X876300Y1003300D02*
Y977900D01*
X927100D01*
Y1003300D01*
X952500D01*
Y1054100D01*
X927100D01*
Y1079500D01*
X876300D01*
Y1054100D01*
X850900D01*
Y1003300D01*
X876300D01*
X4991100Y6756400D02*
Y6858000D01*
X5092700D01*
Y6756400D01*
X4991100D01*
X9419400Y13271500D02*
Y13373100D01*
X9521000D01*
Y13271500D01*
X9419400D01*
X2605200Y4435000D02*
Y4536600D01*
X2706800D01*
Y4435000D01*
X2605200D01*
X4495800Y4525900D02*
Y4627500D01*
X4597400D01*
Y4525900D01*
X4495800D01*
X1017700Y4009200D02*
Y4110800D01*
X1119300D01*
Y4009200D01*
X1017700D01*
X1574800Y13335001D02*
X1600200Y13360400D01*
X1625600D01*
X1600200Y13385800D01*
X1625600Y13411200D01*
X1600200D01*
X1574800Y13436600D01*
X1549400Y13411200D01*
X1524000D01*
X1549400Y13385800D01*
X1524000Y13360400D01*
X1549400D01*
X1574800Y13335001D01*
X2997200Y11531600D02*
Y11633200D01*
X3098800D01*
Y11531600D01*
X2997200D01*
X1520000Y11480800D02*
Y11582400D01*
X1621600D01*
Y11480800D01*
X1520000D01*
X3060700Y6477000D02*
Y6578600D01*
X3162300D01*
Y6477000D01*
X3060700D01*
X4000500Y6705600D02*
Y6807200D01*
X4102100D01*
Y6705600D01*
X4000500D01*
X1003300Y5613400D02*
Y5715000D01*
X1104900D01*
Y5613400D01*
X1003300D01*
X2070100Y7010400D02*
Y7112000D01*
X2171700D01*
Y7010400D01*
X2070100D01*
X1066800Y13335001D02*
X1092200Y13360400D01*
X1117600D01*
X1092200Y13385800D01*
X1117600Y13411200D01*
X1092200D01*
X1066800Y13436600D01*
X1041400Y13411200D01*
X1016000D01*
X1041400Y13385800D01*
X1016000Y13360400D01*
X1041400D01*
X1066800Y13335001D01*
X7251700Y11488800D02*
Y11590400D01*
X7353300D01*
Y11488800D01*
X7251700D01*
Y11738800D02*
Y11840400D01*
X7353300D01*
Y11738800D01*
X7251700D01*
X4000500Y7213600D02*
Y7315200D01*
X4102100D01*
Y7213600D01*
X4000500D01*
Y6959600D02*
Y7061200D01*
X4102100D01*
Y6959600D01*
X4000500D01*
Y6451600D02*
Y6553200D01*
X4102100D01*
Y6451600D01*
X4000500D01*
X1020000Y11480800D02*
Y11582400D01*
X1121600D01*
Y11480800D01*
X1020000D01*
X2298700Y1943400D02*
X2349500Y1994200D01*
X2400300Y1943400D01*
X2349500Y1892600D01*
X2298700Y1943400D01*
X8280400Y11087100D02*
X8305800Y11137900D01*
X8280400Y11188700D01*
X8331200Y11163300D01*
X8382000Y11188700D01*
X8356600Y11137900D01*
X8382000Y11087100D01*
X8331200Y11112500D01*
X8280400Y11087100D01*
X10020300Y13614400D02*
Y13716000D01*
X10121900D01*
Y13614400D01*
X10020300D01*
X1003300Y1003300D02*
Y977900D01*
X1054100D01*
Y1003300D01*
X1079500D01*
Y1054100D01*
X1054100D01*
Y1079500D01*
X1003300D01*
Y1054100D01*
X977900D01*
Y1003300D01*
X1003300D01*
X1130300D02*
Y977900D01*
X1181100D01*
Y1003300D01*
X1206500D01*
Y1054100D01*
X1181100D01*
Y1079500D01*
X1130300D01*
Y1054100D01*
X1104900D01*
Y1003300D01*
X1130300D01*
X4495800Y4775900D02*
Y4877500D01*
X4597400D01*
Y4775900D01*
X4495800D01*
Y4275900D02*
Y4377500D01*
X4597400D01*
Y4275900D01*
X4495800D01*
Y4025900D02*
Y4127500D01*
X4597400D01*
Y4025900D01*
X4495800D01*
Y3775900D02*
Y3877500D01*
X4597400D01*
Y3775900D01*
X4495800D01*
Y3525900D02*
Y3627500D01*
X4597400D01*
Y3525900D01*
X4495800D01*
Y3275900D02*
Y3377500D01*
X4597400D01*
Y3275900D01*
X4495800D01*
Y3025900D02*
Y3127500D01*
X4597400D01*
Y3025900D01*
X4495800D01*
X4241800Y10285600D02*
X4267200D01*
X4292600Y10311000D01*
X4318000Y10285600D01*
X4343400D01*
Y10311000D01*
X4318000Y10336400D01*
X4343400Y10361800D01*
Y10387200D01*
X4318000D01*
X4292600Y10361800D01*
X4267200Y10387200D01*
X4241800D01*
Y10361800D01*
X4267200Y10336400D01*
X4241800Y10311000D01*
Y10285600D01*
X4787900Y1409700D02*
Y1511300D01*
X4889500D01*
Y1409700D01*
X4787900D01*
X4808220Y1430020D02*
Y1490980D01*
X4869180D01*
Y1430020D01*
X4808220D01*
X6591300Y13186600D02*
Y13288200D01*
X6692900D01*
Y13186600D01*
X6591300D01*
Y13436600D02*
Y13538200D01*
X6692900D01*
Y13436600D01*
X6591300D01*
X8919400Y13271500D02*
Y13373100D01*
X9021000D01*
Y13271500D01*
X8919400D01*
X1017700Y4259200D02*
Y4360800D01*
X1119300D01*
Y4259200D01*
X1017700D01*
Y3759200D02*
Y3860800D01*
X1119300D01*
Y3759200D01*
X1017700D01*
Y3509200D02*
Y3610800D01*
X1119300D01*
Y3509200D01*
X1017700D01*
Y3259200D02*
Y3360800D01*
X1119300D01*
Y3259200D01*
X1017700D01*
X868500Y4419200D02*
X817700Y4520800D01*
X919300D01*
X868500Y4419200D01*
X5575300Y13203300D02*
Y13304900D01*
X5676900D01*
Y13203300D01*
X5575300D01*
Y13453300D02*
Y13554900D01*
X5676900D01*
Y13453300D01*
X5575300D01*
X4991100Y7264400D02*
Y7366000D01*
X5092700D01*
Y7264400D01*
X4991100D01*
Y7010400D02*
Y7112000D01*
X5092700D01*
Y7010400D01*
X4991100D01*
X2605200Y4685000D02*
Y4786600D01*
X2706800D01*
Y4685000D01*
X2605200D01*
Y4185000D02*
Y4286600D01*
X2706800D01*
Y4185000D01*
X2605200D01*
Y3935000D02*
Y4036600D01*
X2706800D01*
Y3935000D01*
X2605200D01*
Y3685000D02*
Y3786600D01*
X2706800D01*
Y3685000D01*
X2605200D01*
Y3435000D02*
Y3536600D01*
X2706800D01*
Y3435000D01*
X2605200D01*
Y3185000D02*
Y3286600D01*
X2706800D01*
Y3185000D01*
X2605200D01*
Y2935000D02*
Y3036600D01*
X2706800D01*
Y2935000D01*
X2605200D01*
X1003300Y7137400D02*
Y7239000D01*
X1104900D01*
Y7137400D01*
X1003300D01*
Y6883400D02*
Y6985000D01*
X1104900D01*
Y6883400D01*
X1003300D01*
Y6629400D02*
Y6731000D01*
X1104900D01*
Y6629400D01*
X1003300D01*
Y6375400D02*
Y6477000D01*
X1104900D01*
Y6375400D01*
X1003300D01*
Y6121400D02*
Y6223000D01*
X1104900D01*
Y6121400D01*
X1003300D01*
Y5867400D02*
Y5969000D01*
X1104900D01*
Y5867400D01*
X1003300D01*
Y5359400D02*
Y5461000D01*
X1104900D01*
Y5359400D01*
X1003300D01*
X3060700Y7239000D02*
Y7340600D01*
X3162300D01*
Y7239000D01*
X3060700D01*
Y6985000D02*
Y7086600D01*
X3162300D01*
Y6985000D01*
X3060700D01*
Y6731000D02*
Y6832600D01*
X3162300D01*
Y6731000D01*
X3060700D01*
Y6223000D02*
Y6324600D01*
X3162300D01*
Y6223000D01*
X3060700D01*
X6159500Y11472100D02*
Y11573700D01*
X6261100D01*
Y11472100D01*
X6159500D01*
Y11722100D02*
Y11823700D01*
X6261100D01*
Y11722100D01*
X6159500D01*
X2070100Y6248400D02*
Y6350000D01*
X2171700D01*
Y6248400D01*
X2070100D01*
Y6502400D02*
Y6604000D01*
X2171700D01*
Y6502400D01*
X2070100D01*
Y6756400D02*
Y6858000D01*
X2171700D01*
Y6756400D01*
X2070100D01*
D74*
X10375916Y12877815D02*
G03*
X10375916Y12877815I-50800J0D01*
G01*
X10121916D02*
G03*
X10121916Y12877815I-50800J0D01*
G01*
X9931400Y7391400D02*
G03*
X9931400Y7391400I-50800J0D01*
G01*
X5165180Y13470979D02*
G03*
X5165180Y13470979I-50800J0D01*
G01*
X10218240Y10236200D02*
G03*
X10218240Y10236200I-50800J0D01*
G01*
X8636000Y13538200D02*
G03*
X8636000Y13538200I-50800J0D01*
G01*
X10210800Y4267200D02*
G03*
X10210800Y4267200I-50800J0D01*
G01*
X11023600Y9372600D02*
G03*
X11023600Y9372600I-50800J0D01*
G01*
X10820400Y9169400D02*
G03*
X10820400Y9169400I-50800J0D01*
G01*
X8153400Y10439400D02*
G03*
X8153400Y10439400I-50800J0D01*
G01*
X8382000Y9474200D02*
G03*
X8382000Y9474200I-50800J0D01*
G01*
X10541000Y4495800D02*
G03*
X10541000Y4495800I-50800J0D01*
G01*
X10515600Y5257800D02*
G03*
X10515600Y5257800I-50800J0D01*
G01*
Y4953000D02*
G03*
X10515600Y4953000I-50800J0D01*
G01*
X9423400Y3987800D02*
G03*
X9423400Y3987800I-50800J0D01*
G01*
X8763000Y3683000D02*
G03*
X8763000Y3683000I-50800J0D01*
G01*
X8001000Y3708400D02*
G03*
X8001000Y3708400I-50800J0D01*
G01*
X7950200Y6070600D02*
G03*
X7950200Y6070600I-50800J0D01*
G01*
X7467600Y5588000D02*
G03*
X7467600Y5588000I-50800J0D01*
G01*
X7797800Y4394200D02*
G03*
X7797800Y4394200I-50800J0D01*
G01*
X7823200Y2895600D02*
G03*
X7823200Y2895600I-50800J0D01*
G01*
X7505700Y2679700D02*
G03*
X7505700Y2679700I-50800J0D01*
G01*
X7747000Y5105400D02*
G03*
X7747000Y5105400I-50800J0D01*
G01*
X7035800Y3225800D02*
G03*
X7035800Y3225800I-50800J0D01*
G01*
X7127500Y4130300D02*
G03*
X7127500Y4130300I-50800J0D01*
G01*
X7518400Y4724400D02*
G03*
X7518400Y4724400I-50800J0D01*
G01*
X6096000Y8077200D02*
G03*
X6096000Y8077200I-50800J0D01*
G01*
X5918200Y8305800D02*
G03*
X5918200Y8305800I-50800J0D01*
G01*
X6553200Y11506200D02*
G03*
X6553200Y11506200I-50800J0D01*
G01*
X2641600Y7569200D02*
G03*
X2641600Y7569200I-50800J0D01*
G01*
X3835400Y5994400D02*
G03*
X3835400Y5994400I-50800J0D01*
G01*
X6863958Y5765800D02*
G03*
X6863958Y5765800I-50800J0D01*
G01*
X3505200Y5080000D02*
G03*
X3505200Y5080000I-50800J0D01*
G01*
X9842500Y6769100D02*
G03*
X9842500Y6769100I-50800J0D01*
G01*
X4597400Y7264400D02*
G03*
X4597400Y7264400I-50800J0D01*
G01*
X5765800Y6426200D02*
G03*
X5765800Y6426200I-50800J0D01*
G01*
X4165600Y5791200D02*
G03*
X4165600Y5791200I-50800J0D01*
G01*
X5486400Y5562600D02*
G03*
X5486400Y5562600I-50800J0D01*
G01*
X6934200Y4582521D02*
G03*
X6934200Y4582521I-50800J0D01*
G01*
X8636000Y6654800D02*
G03*
X8636000Y6654800I-50800J0D01*
G01*
X10922000Y12700000D02*
G03*
X10922000Y12700000I-50800J0D01*
G01*
X8712200Y8280400D02*
G03*
X8712200Y8280400I-50800J0D01*
G01*
X8737600Y7239000D02*
G03*
X8737600Y7239000I-50800J0D01*
G01*
Y7518400D02*
G03*
X8737600Y7518400I-50800J0D01*
G01*
Y7772400D02*
G03*
X8737600Y7772400I-50800J0D01*
G01*
Y8026400D02*
G03*
X8737600Y8026400I-50800J0D01*
G01*
X1498600Y7340600D02*
G03*
X1498600Y7340600I-50800J0D01*
G01*
X6248400Y4775200D02*
G03*
X6248400Y4775200I-50800J0D01*
G01*
X6273800Y4495800D02*
G03*
X6273800Y4495800I-50800J0D01*
G01*
X8763000Y12649200D02*
G03*
X8763000Y12649200I-50800J0D01*
G01*
X9271000Y10820400D02*
G03*
X9271000Y10820400I-50800J0D01*
G01*
X10998200Y13512801D02*
G03*
X10998200Y13512801I-50800J0D01*
G01*
X4826000Y7416800D02*
G03*
X4826000Y7416800I-50800J0D01*
G01*
X4445000Y7010400D02*
G03*
X4445000Y7010400I-50800J0D01*
G01*
X3505200Y7340600D02*
G03*
X3505200Y7340600I-50800J0D01*
G01*
X3530600Y6807200D02*
G03*
X3530600Y6807200I-50800J0D01*
G01*
X3505200Y7086600D02*
G03*
X3505200Y7086600I-50800J0D01*
G01*
X2489200Y6426200D02*
G03*
X2489200Y6426200I-50800J0D01*
G01*
X736600Y5867400D02*
G03*
X736600Y5867400I-50800J0D01*
G01*
X762000Y6172200D02*
G03*
X762000Y6172200I-50800J0D01*
G01*
X1549400Y3225800D02*
G03*
X1549400Y3225800I-50800J0D01*
G01*
Y3530600D02*
G03*
X1549400Y3530600I-50800J0D01*
G01*
Y3810000D02*
G03*
X1549400Y3810000I-50800J0D01*
G01*
X3200400Y3505200D02*
G03*
X3200400Y3505200I-50800J0D01*
G01*
Y3759200D02*
G03*
X3200400Y3759200I-50800J0D01*
G01*
X4978400Y3581400D02*
G03*
X4978400Y3581400I-50800J0D01*
G01*
Y3860800D02*
G03*
X4978400Y3860800I-50800J0D01*
G01*
X1016000Y2413000D02*
G03*
X1016000Y2413000I-50800J0D01*
G01*
X6629400Y11760200D02*
G03*
X6629400Y11760200I-50800J0D01*
G01*
X6642100Y12026900D02*
G03*
X6642100Y12026900I-50800J0D01*
G01*
X6248400Y13284200D02*
G03*
X6248400Y13284200I-50800J0D01*
G01*
X6070600Y13512801D02*
G03*
X6070600Y13512801I-50800J0D01*
G01*
Y13779500D02*
G03*
X6070600Y13779500I-50800J0D01*
G01*
X5181600Y12522200D02*
G03*
X5181600Y12522200I-50800J0D01*
G01*
X5384800Y12319000D02*
G03*
X5384800Y12319000I-50800J0D01*
G01*
X5054600Y13893800D02*
G03*
X5054600Y13893800I-50800J0D01*
G01*
X939800Y609600D02*
G03*
X939800Y609600I-50800J0D01*
G01*
X2705100Y1181100D02*
G03*
X2705100Y1181100I-50800J0D01*
G01*
X3746500Y1447800D02*
G03*
X3746500Y1447800I-50800J0D01*
G01*
X4140200Y4826000D02*
G03*
X4140200Y4826000I-50800J0D01*
G01*
X1485900Y4305300D02*
G03*
X1485900Y4305300I-50800J0D01*
G01*
X3098800Y4737100D02*
G03*
X3098800Y4737100I-50800J0D01*
G01*
X4356100Y6515100D02*
G03*
X4356100Y6515100I-50800J0D01*
G01*
X2908300Y6273800D02*
G03*
X2908300Y6273800I-50800J0D01*
G01*
X1358900Y5410200D02*
G03*
X1358900Y5410200I-50800J0D01*
G01*
X1917700Y6273800D02*
G03*
X1917700Y6273800I-50800J0D01*
G01*
X5372100Y6527800D02*
G03*
X5372100Y6527800I-50800J0D01*
G01*
X3441700Y5994400D02*
G03*
X3441700Y5994400I-50800J0D01*
G01*
X2832100Y9588500D02*
G03*
X2832100Y9588500I-50800J0D01*
G01*
X4787900Y9753600D02*
G03*
X4787900Y9753600I-50800J0D01*
G01*
X4381500Y7937500D02*
G03*
X4381500Y7937500I-50800J0D01*
G01*
X8445500Y11950700D02*
G03*
X8445500Y11950700I-50800J0D01*
G01*
X5359400Y7061200D02*
G03*
X5359400Y7061200I-50800J0D01*
G01*
X1879600Y8686800D02*
G03*
X1879600Y8686800I-50800J0D01*
G01*
X7327900Y13004800D02*
G03*
X7327900Y13004800I-50800J0D01*
G01*
X4521200Y9588500D02*
G03*
X4521200Y9588500I-50800J0D01*
G01*
X7099300Y13779500D02*
G03*
X7099300Y13779500I-50800J0D01*
G01*
X7772400Y12052300D02*
G03*
X7772400Y12052300I-50800J0D01*
G01*
X3860800Y12827000D02*
G03*
X3860800Y12827000I-50800J0D01*
G01*
X3873500Y13335001D02*
G03*
X3873500Y13335001I-50800J0D01*
G01*
X2781300Y12344400D02*
G03*
X2781300Y12344400I-50800J0D01*
G01*
X2997200Y12230100D02*
G03*
X2997200Y12230100I-50800J0D01*
G01*
X1016000Y8750300D02*
G03*
X1016000Y8750300I-50800J0D01*
G01*
D75*
X9911080Y7391400D02*
G03*
X9911080Y7391400I-30480J0D01*
G01*
X5144860Y13470979D02*
G03*
X5144860Y13470979I-30480J0D01*
G01*
X10197920Y10236200D02*
G03*
X10197920Y10236200I-30480J0D01*
G01*
X8615680Y13538200D02*
G03*
X8615680Y13538200I-30480J0D01*
G01*
X10190480Y4267200D02*
G03*
X10190480Y4267200I-30480J0D01*
G01*
X11003280Y9372600D02*
G03*
X11003280Y9372600I-30480J0D01*
G01*
X10800080Y9169400D02*
G03*
X10800080Y9169400I-30480J0D01*
G01*
X8133080Y10439400D02*
G03*
X8133080Y10439400I-30480J0D01*
G01*
X8361680Y9474200D02*
G03*
X8361680Y9474200I-30480J0D01*
G01*
X10520680Y4495800D02*
G03*
X10520680Y4495800I-30480J0D01*
G01*
X10495280Y5257800D02*
G03*
X10495280Y5257800I-30480J0D01*
G01*
Y4953000D02*
G03*
X10495280Y4953000I-30480J0D01*
G01*
X9403080Y3987800D02*
G03*
X9403080Y3987800I-30480J0D01*
G01*
X8742680Y3683000D02*
G03*
X8742680Y3683000I-30480J0D01*
G01*
X7980680Y3708400D02*
G03*
X7980680Y3708400I-30480J0D01*
G01*
X7929880Y6070600D02*
G03*
X7929880Y6070600I-30480J0D01*
G01*
X7447280Y5588000D02*
G03*
X7447280Y5588000I-30480J0D01*
G01*
X7777480Y4394200D02*
G03*
X7777480Y4394200I-30480J0D01*
G01*
X7802880Y2895600D02*
G03*
X7802880Y2895600I-30480J0D01*
G01*
X7485380Y2679700D02*
G03*
X7485380Y2679700I-30480J0D01*
G01*
X7726680Y5105400D02*
G03*
X7726680Y5105400I-30480J0D01*
G01*
X7015480Y3225800D02*
G03*
X7015480Y3225800I-30480J0D01*
G01*
X7107180Y4130300D02*
G03*
X7107180Y4130300I-30480J0D01*
G01*
X7498080Y4724400D02*
G03*
X7498080Y4724400I-30480J0D01*
G01*
X6075680Y8077200D02*
G03*
X6075680Y8077200I-30480J0D01*
G01*
X5897880Y8305800D02*
G03*
X5897880Y8305800I-30480J0D01*
G01*
X6532880Y11506200D02*
G03*
X6532880Y11506200I-30480J0D01*
G01*
X2621280Y7569200D02*
G03*
X2621280Y7569200I-30480J0D01*
G01*
X3815080Y5994400D02*
G03*
X3815080Y5994400I-30480J0D01*
G01*
X6843638Y5765800D02*
G03*
X6843638Y5765800I-30480J0D01*
G01*
X3484880Y5080000D02*
G03*
X3484880Y5080000I-30480J0D01*
G01*
X9822180Y6769100D02*
G03*
X9822180Y6769100I-30480J0D01*
G01*
X4577080Y7264400D02*
G03*
X4577080Y7264400I-30480J0D01*
G01*
X5745480Y6426200D02*
G03*
X5745480Y6426200I-30480J0D01*
G01*
X4145280Y5791200D02*
G03*
X4145280Y5791200I-30480J0D01*
G01*
X5466080Y5562600D02*
G03*
X5466080Y5562600I-30480J0D01*
G01*
X6913880Y4582521D02*
G03*
X6913880Y4582521I-30480J0D01*
G01*
X8615680Y6654800D02*
G03*
X8615680Y6654800I-30480J0D01*
G01*
X10901680Y12700000D02*
G03*
X10901680Y12700000I-30480J0D01*
G01*
X8691880Y8280400D02*
G03*
X8691880Y8280400I-30480J0D01*
G01*
X8717280Y7239000D02*
G03*
X8717280Y7239000I-30480J0D01*
G01*
Y7518400D02*
G03*
X8717280Y7518400I-30480J0D01*
G01*
Y7772400D02*
G03*
X8717280Y7772400I-30480J0D01*
G01*
Y8026400D02*
G03*
X8717280Y8026400I-30480J0D01*
G01*
X1478280Y7340600D02*
G03*
X1478280Y7340600I-30480J0D01*
G01*
X6228080Y4775200D02*
G03*
X6228080Y4775200I-30480J0D01*
G01*
X6253480Y4495800D02*
G03*
X6253480Y4495800I-30480J0D01*
G01*
X8742680Y12649200D02*
G03*
X8742680Y12649200I-30480J0D01*
G01*
X9250680Y10820400D02*
G03*
X9250680Y10820400I-30480J0D01*
G01*
X10977880Y13512801D02*
G03*
X10977880Y13512801I-30480J0D01*
G01*
X4805680Y7416800D02*
G03*
X4805680Y7416800I-30480J0D01*
G01*
X4424680Y7010400D02*
G03*
X4424680Y7010400I-30480J0D01*
G01*
X3484880Y7340600D02*
G03*
X3484880Y7340600I-30480J0D01*
G01*
X3510280Y6807200D02*
G03*
X3510280Y6807200I-30480J0D01*
G01*
X3484880Y7086600D02*
G03*
X3484880Y7086600I-30480J0D01*
G01*
X2468880Y6426200D02*
G03*
X2468880Y6426200I-30480J0D01*
G01*
X716280Y5867400D02*
G03*
X716280Y5867400I-30480J0D01*
G01*
X741680Y6172200D02*
G03*
X741680Y6172200I-30480J0D01*
G01*
X1529080Y3225800D02*
G03*
X1529080Y3225800I-30480J0D01*
G01*
Y3530600D02*
G03*
X1529080Y3530600I-30480J0D01*
G01*
Y3810000D02*
G03*
X1529080Y3810000I-30480J0D01*
G01*
X3180080Y3505200D02*
G03*
X3180080Y3505200I-30480J0D01*
G01*
Y3759200D02*
G03*
X3180080Y3759200I-30480J0D01*
G01*
X4958080Y3581400D02*
G03*
X4958080Y3581400I-30480J0D01*
G01*
Y3860800D02*
G03*
X4958080Y3860800I-30480J0D01*
G01*
X995680Y2413000D02*
G03*
X995680Y2413000I-30480J0D01*
G01*
X6609080Y11760200D02*
G03*
X6609080Y11760200I-30480J0D01*
G01*
X6621780Y12026900D02*
G03*
X6621780Y12026900I-30480J0D01*
G01*
X6228080Y13284200D02*
G03*
X6228080Y13284200I-30480J0D01*
G01*
X6050280Y13512801D02*
G03*
X6050280Y13512801I-30480J0D01*
G01*
Y13779500D02*
G03*
X6050280Y13779500I-30480J0D01*
G01*
X5161280Y12522200D02*
G03*
X5161280Y12522200I-30480J0D01*
G01*
X5364480Y12319000D02*
G03*
X5364480Y12319000I-30480J0D01*
G01*
X5034280Y13893800D02*
G03*
X5034280Y13893800I-30480J0D01*
G01*
X919480Y609600D02*
G03*
X919480Y609600I-30480J0D01*
G01*
X2684780Y1181100D02*
G03*
X2684780Y1181100I-30480J0D01*
G01*
X3726180Y1447800D02*
G03*
X3726180Y1447800I-30480J0D01*
G01*
X4119880Y4826000D02*
G03*
X4119880Y4826000I-30480J0D01*
G01*
X1465580Y4305300D02*
G03*
X1465580Y4305300I-30480J0D01*
G01*
X3078480Y4737100D02*
G03*
X3078480Y4737100I-30480J0D01*
G01*
X4335780Y6515100D02*
G03*
X4335780Y6515100I-30480J0D01*
G01*
X2887980Y6273800D02*
G03*
X2887980Y6273800I-30480J0D01*
G01*
X1338580Y5410200D02*
G03*
X1338580Y5410200I-30480J0D01*
G01*
X1897380Y6273800D02*
G03*
X1897380Y6273800I-30480J0D01*
G01*
X5351780Y6527800D02*
G03*
X5351780Y6527800I-30480J0D01*
G01*
X3421380Y5994400D02*
G03*
X3421380Y5994400I-30480J0D01*
G01*
X2811780Y9588500D02*
G03*
X2811780Y9588500I-30480J0D01*
G01*
X4767580Y9753600D02*
G03*
X4767580Y9753600I-30480J0D01*
G01*
X4361180Y7937500D02*
G03*
X4361180Y7937500I-30480J0D01*
G01*
X8425180Y11950700D02*
G03*
X8425180Y11950700I-30480J0D01*
G01*
X5339080Y7061200D02*
G03*
X5339080Y7061200I-30480J0D01*
G01*
X1859280Y8686800D02*
G03*
X1859280Y8686800I-30480J0D01*
G01*
X7307580Y13004800D02*
G03*
X7307580Y13004800I-30480J0D01*
G01*
X4500880Y9588500D02*
G03*
X4500880Y9588500I-30480J0D01*
G01*
X7078980Y13779500D02*
G03*
X7078980Y13779500I-30480J0D01*
G01*
X7752080Y12052300D02*
G03*
X7752080Y12052300I-30480J0D01*
G01*
X3840480Y12827000D02*
G03*
X3840480Y12827000I-30480J0D01*
G01*
X3853180Y13335001D02*
G03*
X3853180Y13335001I-30480J0D01*
G01*
X2760980Y12344400D02*
G03*
X2760980Y12344400I-30480J0D01*
G01*
X2976880Y12230100D02*
G03*
X2976880Y12230100I-30480J0D01*
G01*
X995680Y8750300D02*
G03*
X995680Y8750300I-30480J0D01*
G01*
%TF.MD5,5b491c2d4e4c0ef445b3488be5fa63c7*%
M02*
