%TF.GenerationSoftware,Altium Limited,Altium Designer,25.7.1 (20)*%
G04 Layer_Color=255*
%FSLAX45Y45*%
%MOMM*%
%TF.SameCoordinates,98D05D86-F949-4FD5-B65E-89259CC932D3*%
%TF.FilePolarity,Positive*%
%TF.FileFunction,Pads,Bot*%
%TF.Part,Single*%
G01*
G75*
%TA.AperFunction,ViaPad*%
%ADD21C,1.52400*%
%TA.AperFunction,ComponentPad*%
%ADD22C,1.50000*%
%ADD23R,1.50000X1.50000*%
%ADD24C,2.05000*%
%ADD25R,1.40000X1.40000*%
%ADD26R,1.45000X1.45000*%
%ADD27R,1.20000X1.20000*%
%ADD28R,1.40000X1.40000*%
%ADD29C,1.40000*%
%ADD30R,1.05000X1.05000*%
%ADD31C,1.95000*%
%ADD32R,1.95000X1.95000*%
%ADD33C,1.20000*%
%ADD34C,1.05000*%
%ADD35C,1.45000*%
%ADD36C,1.10000*%
D21*
X10337800Y11074400D02*
D03*
X10312400Y11455400D02*
D03*
Y11785600D02*
D03*
X10287000Y12141200D02*
D03*
X3149600Y10388600D02*
D03*
X2794000D02*
D03*
X2489200Y10363200D02*
D03*
X2209800D02*
D03*
X3149600Y10718800D02*
D03*
X2794000D02*
D03*
X2463800D02*
D03*
X2184400D02*
D03*
D22*
X6496000Y8815400D02*
D03*
Y8561400D02*
D03*
Y8307400D02*
D03*
Y8053400D02*
D03*
Y7799400D02*
D03*
Y7545400D02*
D03*
Y7291400D02*
D03*
Y7037400D02*
D03*
Y6783400D02*
D03*
Y6529400D02*
D03*
Y6275400D02*
D03*
Y6021400D02*
D03*
Y5767400D02*
D03*
Y5513400D02*
D03*
Y5259400D02*
D03*
Y5005400D02*
D03*
Y4751400D02*
D03*
Y4497400D02*
D03*
Y4243400D02*
D03*
Y3989400D02*
D03*
Y3735400D02*
D03*
X8996000Y8815400D02*
D03*
Y8561400D02*
D03*
Y8307400D02*
D03*
Y8053400D02*
D03*
Y7799400D02*
D03*
Y7545400D02*
D03*
Y7291400D02*
D03*
Y7037400D02*
D03*
Y6783400D02*
D03*
Y6529400D02*
D03*
Y6275400D02*
D03*
Y6021400D02*
D03*
Y5767400D02*
D03*
Y5513400D02*
D03*
Y5259400D02*
D03*
Y5005400D02*
D03*
Y4751400D02*
D03*
Y4497400D02*
D03*
Y4243400D02*
D03*
Y3989400D02*
D03*
Y3735400D02*
D03*
X10325116Y12877815D02*
D03*
X5041900Y6807200D02*
D03*
X3111500Y6527800D02*
D03*
X4051300Y6756400D02*
D03*
X1054100Y5664200D02*
D03*
X2120900Y7061200D02*
D03*
X4051300Y7264400D02*
D03*
Y7010400D02*
D03*
X5041900Y7315200D02*
D03*
Y7061200D02*
D03*
X1054100Y7188200D02*
D03*
Y6934200D02*
D03*
Y6680200D02*
D03*
Y6426200D02*
D03*
Y6172200D02*
D03*
Y5918200D02*
D03*
X3111500Y7289800D02*
D03*
Y7035800D02*
D03*
Y6781800D02*
D03*
Y6273800D02*
D03*
X2120900Y6553200D02*
D03*
Y6807200D02*
D03*
X10071116Y12877815D02*
D03*
D23*
X6496000Y3481400D02*
D03*
X8996000D02*
D03*
X5041900Y6553200D02*
D03*
X3111500Y6019800D02*
D03*
X4051300Y6502400D02*
D03*
X1054100Y5410200D02*
D03*
X2120900Y6299200D02*
D03*
D24*
X5181600Y10336400D02*
D03*
Y11685400D02*
D03*
X4292600D02*
D03*
Y10336400D02*
D03*
D25*
X6642100Y13737399D02*
D03*
X7302500Y12039600D02*
D03*
X6210300Y12022900D02*
D03*
X5626100Y13754100D02*
D03*
X4546600Y4826700D02*
D03*
X1068500Y4310000D02*
D03*
X2656000Y4735800D02*
D03*
D26*
X4338700Y1460500D02*
D03*
D27*
X2349500Y1180800D02*
D03*
D28*
X7687500Y13246100D02*
D03*
X2548000Y11582400D02*
D03*
X1070800Y11531600D02*
D03*
X8331200Y11137900D02*
D03*
X10071100Y13665199D02*
D03*
X8970200Y13322301D02*
D03*
D29*
X10325100Y13665199D02*
D03*
X5626100Y13004100D02*
D03*
X6642100Y12987399D02*
D03*
X8585200Y11137900D02*
D03*
X7302500Y11289600D02*
D03*
X6210300Y11272900D02*
D03*
X8187500Y13246100D02*
D03*
X9470200Y13322301D02*
D03*
X2656000Y4485800D02*
D03*
X4546600Y4576700D02*
D03*
X1068500Y4060000D02*
D03*
X3048000Y11582400D02*
D03*
X1570800Y11531600D02*
D03*
X7302500Y11539600D02*
D03*
Y11789600D02*
D03*
X4546600Y4326700D02*
D03*
Y4076700D02*
D03*
Y3826700D02*
D03*
Y3576700D02*
D03*
Y3326700D02*
D03*
Y3076700D02*
D03*
X6642100Y13237399D02*
D03*
Y13487399D02*
D03*
X1068500Y3810000D02*
D03*
Y3560000D02*
D03*
Y3310000D02*
D03*
X5626100Y13254100D02*
D03*
Y13504100D02*
D03*
X2656000Y4235800D02*
D03*
Y3985800D02*
D03*
Y3735800D02*
D03*
Y3485800D02*
D03*
Y3235800D02*
D03*
Y2985800D02*
D03*
X6210300Y11522900D02*
D03*
Y11772900D02*
D03*
D30*
X901700Y1028700D02*
D03*
D31*
X1574800Y13385800D02*
D03*
D32*
X1066800D02*
D03*
D33*
X2349500Y1943400D02*
D03*
D34*
X1028700Y1028700D02*
D03*
X1155700D02*
D03*
D35*
X4838700Y1460500D02*
D03*
D36*
X868500Y4470000D02*
D03*
%TF.MD5,3a3723587a098269ee93de7fd1358b0f*%
M02*
