%TF.GenerationSoftware,Altium Limited,Altium Designer,25.7.1 (20)*%
G04 Layer_Physical_Order=8*
G04 Layer_Color=16711680*
%FSLAX45Y45*%
%MOMM*%
%TF.SameCoordinates,98D05D86-F949-4FD5-B65E-89259CC932D3*%
%TF.FilePolarity,Positive*%
%TF.FileFunction,Copper,L8,Bot,Signal*%
%TF.Part,Single*%
G01*
G75*
%TA.AperFunction,Conductor*%
%ADD10C,0.25400*%
%TA.AperFunction,ViaPad*%
%ADD21C,1.52400*%
%TA.AperFunction,ComponentPad*%
%ADD22C,1.50000*%
%ADD23R,1.50000X1.50000*%
%ADD24C,2.05000*%
%ADD25R,1.40000X1.40000*%
%ADD26R,1.45000X1.45000*%
%ADD27R,1.20000X1.20000*%
%ADD28R,1.40000X1.40000*%
%ADD29C,1.40000*%
%ADD30R,1.05000X1.05000*%
%ADD31C,1.95000*%
%ADD32R,1.95000X1.95000*%
%ADD33C,1.20000*%
%ADD34C,1.05000*%
%ADD35C,1.45000*%
%ADD36C,1.10000*%
%TA.AperFunction,ViaPad*%
%ADD37C,1.27000*%
D10*
X10163720Y4270920D02*
Y10232480D01*
X10160000Y4267200D02*
X10163720Y4270920D01*
Y10232480D02*
X10167440Y10236200D01*
X7696200Y10820400D02*
X7747000Y10871200D01*
X5651500Y10820400D02*
X7696200D01*
X7747000Y10871200D02*
Y11696700D01*
X5588000Y10756900D02*
X5651500Y10820400D01*
X6813158Y5765800D02*
X8001000D01*
X8102600Y5867400D01*
Y10439400D01*
X5029200Y7787279D02*
Y9740900D01*
X5080000Y9791700D01*
X5029200Y7787279D02*
X5044079Y7772400D01*
X5207000D01*
X7747000Y11696700D02*
X8001000Y11950700D01*
X9779000Y6756400D02*
X9804400Y6781800D01*
X9626600Y2006600D02*
X9779000Y2159000D01*
Y6756400D01*
X9372600Y2224679D02*
Y3987800D01*
X5461000Y2209800D02*
X9357721D01*
X9372600Y2224679D01*
X8699500Y3695700D02*
X8712200Y3683000D01*
X7962900Y3695700D02*
X8699500D01*
X7950200Y3708400D02*
X7962900Y3695700D01*
X6756400Y5450479D02*
X6771279Y5435600D01*
X8458200D02*
X8509000Y5486400D01*
Y6258921D01*
X6771279Y5435600D02*
X8458200D01*
X6756400Y5450479D02*
Y5666948D01*
X6157340Y6416300D02*
X7909921D01*
X7924800Y6096000D02*
Y6401421D01*
X7899400Y6070600D02*
X7924800Y6096000D01*
X7909921Y6416300D02*
X7924800Y6401421D01*
X6147440Y6426200D02*
X6157340Y6416300D01*
X7620000Y5029200D02*
X7696200Y5105400D01*
X7366000Y3225800D02*
X7620000Y3479800D01*
Y5029200D01*
X6985000Y3225800D02*
X7366000D01*
X6530548Y5892800D02*
X6756400Y5666948D01*
X6172200Y5892800D02*
X6530548D01*
X6494400Y7797800D02*
X6496000Y7799400D01*
X6161679Y7797800D02*
X6494400D01*
X6146800Y7812679D02*
X6161679Y7797800D01*
X6146800Y7812679D02*
Y7975600D01*
X6045200Y8077200D02*
X6146800Y7975600D01*
X6495200Y8306600D02*
X6496000Y8307400D01*
X5868200Y8306600D02*
X6495200D01*
X5867400Y8305800D02*
X5868200Y8306600D01*
X2590800Y7188200D02*
Y7569200D01*
Y7188200D02*
X2616200Y7162800D01*
X3234516D01*
X3454400Y6942916D01*
Y6860093D02*
Y6942916D01*
Y6860093D02*
X3505200Y6809293D01*
Y6807200D02*
Y6809293D01*
X3479800Y6807200D02*
X3505200D01*
X736600Y5080000D02*
X3454400D01*
X685800Y5130800D02*
X736600Y5080000D01*
X685800Y5130800D02*
Y5867400D01*
X3672479Y2006600D02*
X9626600D01*
X3657600Y2021479D02*
X3672479Y2006600D01*
X3657600Y2021479D02*
Y7315200D01*
X3632200Y7340600D02*
X3657600Y7315200D01*
X3454400Y7340600D02*
X3632200D01*
X5715000Y6426200D02*
X6147440D01*
X8994400Y6273800D02*
X8996000Y6275400D01*
X8523879Y6273800D02*
X8994400D01*
X8509000Y6258921D02*
X8523879Y6273800D01*
X6019800Y6045200D02*
X6172200Y5892800D01*
X4140200Y6045200D02*
X6019800D01*
X4114800Y6019800D02*
X4140200Y6045200D01*
X4114800Y5791200D02*
Y6019800D01*
X5435600Y2235200D02*
X5461000Y2209800D01*
X5435600Y2235200D02*
Y5562600D01*
X8585200Y6654800D02*
X8686800Y6756400D01*
Y7239000D01*
X6872879Y11539600D02*
X7302500D01*
X6858000Y11554479D02*
X6872879Y11539600D01*
X6858000Y11554479D02*
Y12192000D01*
X6680200Y12369800D02*
X6858000Y12192000D01*
X6108700Y12369800D02*
X6680200D01*
X8001000Y11950700D02*
X8394700D01*
X5588000Y10439400D02*
Y10756900D01*
X5461000Y10312400D02*
X5588000Y10439400D01*
X5461000Y9867900D02*
Y10312400D01*
X5384800Y9791700D02*
X5461000Y9867900D01*
X5080000Y9791700D02*
X5384800D01*
X5207000Y7772400D02*
X5308600Y7670800D01*
Y7061200D02*
Y7670800D01*
X5829300Y11760200D02*
X6043021D01*
X5715000Y11874500D02*
X5829300Y11760200D01*
X6057900Y11557000D02*
Y11745321D01*
X6043021Y11760200D02*
X6057900Y11745321D01*
X6201600Y11531600D02*
X6210300Y11522900D01*
X6083300Y11531600D02*
X6201600D01*
X6057900Y11557000D02*
X6083300Y11531600D01*
X5715000Y11874500D02*
Y12585700D01*
X5651500Y12649200D02*
X5715000Y12585700D01*
X3848100Y12649200D02*
X5651500D01*
X3810000Y12687300D02*
X3848100Y12649200D01*
X3810000Y12687300D02*
Y12827000D01*
X6083300Y12395200D02*
Y13081000D01*
Y12395200D02*
X6108700Y12369800D01*
X6052100Y13112199D02*
X6083300Y13081000D01*
X4787788Y13112199D02*
X6052100D01*
X4743888Y13068300D02*
X4787788Y13112199D01*
X3860800Y13068300D02*
X4743888D01*
X3822700Y13106400D02*
X3860800Y13068300D01*
X3822700Y13106400D02*
Y13335001D01*
D21*
X10337800Y11074400D02*
D03*
X10312400Y11455400D02*
D03*
Y11785600D02*
D03*
X10287000Y12141200D02*
D03*
X3149600Y10388600D02*
D03*
X2794000D02*
D03*
X2489200Y10363200D02*
D03*
X2209800D02*
D03*
X3149600Y10718800D02*
D03*
X2794000D02*
D03*
X2463800D02*
D03*
X2184400D02*
D03*
D22*
X6496000Y8815400D02*
D03*
Y8561400D02*
D03*
Y8307400D02*
D03*
Y8053400D02*
D03*
Y7799400D02*
D03*
Y7545400D02*
D03*
Y7291400D02*
D03*
Y7037400D02*
D03*
Y6783400D02*
D03*
Y6529400D02*
D03*
Y6275400D02*
D03*
Y6021400D02*
D03*
Y5767400D02*
D03*
Y5513400D02*
D03*
Y5259400D02*
D03*
Y5005400D02*
D03*
Y4751400D02*
D03*
Y4497400D02*
D03*
Y4243400D02*
D03*
Y3989400D02*
D03*
Y3735400D02*
D03*
X8996000Y8815400D02*
D03*
Y8561400D02*
D03*
Y8307400D02*
D03*
Y8053400D02*
D03*
Y7799400D02*
D03*
Y7545400D02*
D03*
Y7291400D02*
D03*
Y7037400D02*
D03*
Y6783400D02*
D03*
Y6529400D02*
D03*
Y6275400D02*
D03*
Y6021400D02*
D03*
Y5767400D02*
D03*
Y5513400D02*
D03*
Y5259400D02*
D03*
Y5005400D02*
D03*
Y4751400D02*
D03*
Y4497400D02*
D03*
Y4243400D02*
D03*
Y3989400D02*
D03*
Y3735400D02*
D03*
X10325116Y12877815D02*
D03*
X5041900Y6807200D02*
D03*
X3111500Y6527800D02*
D03*
X4051300Y6756400D02*
D03*
X1054100Y5664200D02*
D03*
X2120900Y7061200D02*
D03*
X4051300Y7264400D02*
D03*
Y7010400D02*
D03*
X5041900Y7315200D02*
D03*
Y7061200D02*
D03*
X1054100Y7188200D02*
D03*
Y6934200D02*
D03*
Y6680200D02*
D03*
Y6426200D02*
D03*
Y6172200D02*
D03*
Y5918200D02*
D03*
X3111500Y7289800D02*
D03*
Y7035800D02*
D03*
Y6781800D02*
D03*
Y6273800D02*
D03*
X2120900Y6553200D02*
D03*
Y6807200D02*
D03*
X10071116Y12877815D02*
D03*
D23*
X6496000Y3481400D02*
D03*
X8996000D02*
D03*
X5041900Y6553200D02*
D03*
X3111500Y6019800D02*
D03*
X4051300Y6502400D02*
D03*
X1054100Y5410200D02*
D03*
X2120900Y6299200D02*
D03*
D24*
X5181600Y10336400D02*
D03*
Y11685400D02*
D03*
X4292600D02*
D03*
Y10336400D02*
D03*
D25*
X6642100Y13737399D02*
D03*
X7302500Y12039600D02*
D03*
X6210300Y12022900D02*
D03*
X5626100Y13754100D02*
D03*
X4546600Y4826700D02*
D03*
X1068500Y4310000D02*
D03*
X2656000Y4735800D02*
D03*
D26*
X4338700Y1460500D02*
D03*
D27*
X2349500Y1180800D02*
D03*
D28*
X7687500Y13246100D02*
D03*
X2548000Y11582400D02*
D03*
X1070800Y11531600D02*
D03*
X8331200Y11137900D02*
D03*
X10071100Y13665199D02*
D03*
X8970200Y13322301D02*
D03*
D29*
X10325100Y13665199D02*
D03*
X5626100Y13004100D02*
D03*
X6642100Y12987399D02*
D03*
X8585200Y11137900D02*
D03*
X7302500Y11289600D02*
D03*
X6210300Y11272900D02*
D03*
X8187500Y13246100D02*
D03*
X9470200Y13322301D02*
D03*
X2656000Y4485800D02*
D03*
X4546600Y4576700D02*
D03*
X1068500Y4060000D02*
D03*
X3048000Y11582400D02*
D03*
X1570800Y11531600D02*
D03*
X7302500Y11539600D02*
D03*
Y11789600D02*
D03*
X4546600Y4326700D02*
D03*
Y4076700D02*
D03*
Y3826700D02*
D03*
Y3576700D02*
D03*
Y3326700D02*
D03*
Y3076700D02*
D03*
X6642100Y13237399D02*
D03*
Y13487399D02*
D03*
X1068500Y3810000D02*
D03*
Y3560000D02*
D03*
Y3310000D02*
D03*
X5626100Y13254100D02*
D03*
Y13504100D02*
D03*
X2656000Y4235800D02*
D03*
Y3985800D02*
D03*
Y3735800D02*
D03*
Y3485800D02*
D03*
Y3235800D02*
D03*
Y2985800D02*
D03*
X6210300Y11522900D02*
D03*
Y11772900D02*
D03*
D30*
X901700Y1028700D02*
D03*
D31*
X1574800Y13385800D02*
D03*
D32*
X1066800D02*
D03*
D33*
X2349500Y1943400D02*
D03*
D34*
X1028700Y1028700D02*
D03*
X1155700D02*
D03*
D35*
X4838700Y1460500D02*
D03*
D36*
X868500Y4470000D02*
D03*
D37*
X9880600Y7391400D02*
D03*
X5114380Y13470979D02*
D03*
X10167440Y10236200D02*
D03*
X8585200Y13538200D02*
D03*
X10160000Y4267200D02*
D03*
X10972800Y9372600D02*
D03*
X10769600Y9169400D02*
D03*
X8102600Y10439400D02*
D03*
X8331200Y9474200D02*
D03*
X10490200Y4495800D02*
D03*
X10464800Y5257800D02*
D03*
Y4953000D02*
D03*
X9372600Y3987800D02*
D03*
X8712200Y3683000D02*
D03*
X7950200Y3708400D02*
D03*
X7899400Y6070600D02*
D03*
X7416800Y5588000D02*
D03*
X7747000Y4394200D02*
D03*
X7772400Y2895600D02*
D03*
X7454900Y2679700D02*
D03*
X7696200Y5105400D02*
D03*
X6985000Y3225800D02*
D03*
X7076700Y4130300D02*
D03*
X7467600Y4724400D02*
D03*
X6045200Y8077200D02*
D03*
X5867400Y8305800D02*
D03*
X6502400Y11506200D02*
D03*
X2590800Y7569200D02*
D03*
X3784600Y5994400D02*
D03*
X6813158Y5765800D02*
D03*
X3454400Y5080000D02*
D03*
X9791700Y6769100D02*
D03*
X4546600Y7264400D02*
D03*
X5715000Y6426200D02*
D03*
X4114800Y5791200D02*
D03*
X5435600Y5562600D02*
D03*
X6883400Y4582521D02*
D03*
X8585200Y6654800D02*
D03*
X10871200Y12700000D02*
D03*
X8661400Y8280400D02*
D03*
X8686800Y7239000D02*
D03*
Y7518400D02*
D03*
Y7772400D02*
D03*
Y8026400D02*
D03*
X1447800Y7340600D02*
D03*
X6197600Y4775200D02*
D03*
X6223000Y4495800D02*
D03*
X8712200Y12649200D02*
D03*
X9220200Y10820400D02*
D03*
X10947400Y13512801D02*
D03*
X4775200Y7416800D02*
D03*
X4394200Y7010400D02*
D03*
X3454400Y7340600D02*
D03*
X3479800Y6807200D02*
D03*
X3454400Y7086600D02*
D03*
X2438400Y6426200D02*
D03*
X685800Y5867400D02*
D03*
X711200Y6172200D02*
D03*
X1498600Y3225800D02*
D03*
Y3530600D02*
D03*
Y3810000D02*
D03*
X3149600Y3505200D02*
D03*
Y3759200D02*
D03*
X4927600Y3581400D02*
D03*
Y3860800D02*
D03*
X965200Y2413000D02*
D03*
X6578600Y11760200D02*
D03*
X6591300Y12026900D02*
D03*
X6197600Y13284200D02*
D03*
X6019800Y13512801D02*
D03*
Y13779500D02*
D03*
X5130800Y12522200D02*
D03*
X5334000Y12319000D02*
D03*
X5003800Y13893800D02*
D03*
X889000Y609600D02*
D03*
X2654300Y1181100D02*
D03*
X3695700Y1447800D02*
D03*
X4089400Y4826000D02*
D03*
X1435100Y4305300D02*
D03*
X3048000Y4737100D02*
D03*
X4305300Y6515100D02*
D03*
X2857500Y6273800D02*
D03*
X1308100Y5410200D02*
D03*
X1866900Y6273800D02*
D03*
X5321300Y6527800D02*
D03*
X3390900Y5994400D02*
D03*
X2781300Y9588500D02*
D03*
X4737100Y9753600D02*
D03*
X4330700Y7937500D02*
D03*
X8394700Y11950700D02*
D03*
X5308600Y7061200D02*
D03*
X1828800Y8686800D02*
D03*
X7277100Y13004800D02*
D03*
X4470400Y9588500D02*
D03*
X7048500Y13779500D02*
D03*
X7721600Y12052300D02*
D03*
X3810000Y12827000D02*
D03*
X3822700Y13335001D02*
D03*
X2730500Y12344400D02*
D03*
X2946400Y12230100D02*
D03*
X965200Y8750300D02*
D03*
%TF.MD5,c664b4dc234f199d876595a2afe31620*%
M02*
